<svg width="21" height="21" viewBox="0 0 21 21" fill="none" xmlns="http://www.w3.org/2000/svg">
<path d="M16.9312 8.785C16.6373 7.2955 15.8354 5.95425 14.6624 4.99034C13.4895 4.02643 12.0182 3.49966 10.5 3.5C7.97125 3.5 5.775 4.935 4.68125 7.035C3.3952 7.17398 2.20588 7.78331 1.3418 8.74591C0.477725 9.70851 -0.000150239 10.9565 3.54312e-08 12.25C3.54312e-08 15.1462 2.35375 17.5 5.25 17.5H16.625C19.04 17.5 21 15.54 21 13.125C21 10.815 19.2063 8.9425 16.9312 8.785ZM12.25 11.375V14.875H8.75V11.375H6.125L10.5 7L14.875 11.375H12.25Z" fill="white"/>
</svg>
