<svg width="24" height="24" viewBox="0 0 24 24" fill="none" xmlns="http://www.w3.org/2000/svg">
<path fill-rule="evenodd" clip-rule="evenodd" d="M13.78 1.17748C15.099 0.852482 16.5265 1.33498 17.253 2.57648C17.4395 2.89548 17.644 3.26748 17.8605 3.69548C16.3415 3.59498 14.088 3.49998 11 3.49998C9.258 3.49998 7.782 3.52998 6.553 3.57498C8.864 2.60998 11.3785 1.76848 13.78 1.17748ZM4.0285 23.0445C5.517 23.1475 7.8025 23.25 11 23.25C14.1975 23.25 16.483 23.1475 17.9715 23.0445C19.6105 22.931 20.9035 21.686 21.038 20.0335C21.064 19.7178 21.089 19.366 21.113 18.978C20.6485 18.9915 20.1125 19 19.5 19C18.663 19 17.968 18.984 17.405 18.9615C15.5855 18.8885 14.1165 17.495 14.0335 15.628C14.0135 15.1715 14 14.631 14 14C14 13.369 14.0135 12.8285 14.0335 12.372C14.1165 10.505 15.5855 9.11198 17.405 9.03848C18.103 9.01171 18.8015 8.99888 19.5 8.99998C20.1125 8.99998 20.6485 9.00848 21.113 9.02198C21.089 8.63365 21.064 8.28198 21.038 7.96698C20.9035 6.31398 19.6105 5.06898 17.9715 4.95548C16.483 4.85248 14.1975 4.74998 11 4.74998C7.8025 4.74998 5.517 4.85248 4.0285 4.95548C2.3895 5.06898 1.0965 6.31398 0.962 7.96648C0.853 9.30548 0.75 11.2875 0.75 14C0.75 16.7125 0.853 18.695 0.962 20.0335C1.0965 21.686 2.3895 22.931 4.0285 23.0445ZM15.532 15.5615C15.5795 16.6265 16.4005 17.42 17.465 17.4625C18.0075 17.4845 18.682 17.5 19.5 17.5C20.318 17.5 20.9925 17.4845 21.535 17.4625C22.6 17.42 23.4205 16.6265 23.468 15.5615C23.487 15.128 23.5 14.6095 23.5 14C23.5 13.3905 23.487 12.872 23.468 12.4385C23.4205 11.3735 22.5995 10.58 21.535 10.5375C20.857 10.5114 20.1785 10.4989 19.5 10.5C18.682 10.5 18.0075 10.5155 17.465 10.5375C16.4 10.58 15.5795 11.3735 15.532 12.4385C15.513 12.872 15.5 13.39 15.5 14C15.5 14.61 15.513 15.128 15.532 15.5615ZM19 12.75C19.1989 12.75 19.3897 12.829 19.5303 12.9697C19.671 13.1103 19.75 13.3011 19.75 13.5V14.5C19.75 14.6989 19.671 14.8897 19.5303 15.0303C19.3897 15.171 19.1989 15.25 19 15.25C18.8011 15.25 18.6103 15.171 18.4697 15.0303C18.329 14.8897 18.25 14.6989 18.25 14.5V13.5C18.25 13.3011 18.329 13.1103 18.4697 12.9697C18.6103 12.829 18.8011 12.75 19 12.75Z" fill="#009F61"/>
</svg>
