<svg width="22" height="22" viewBox="0 0 22 22" fill="none" xmlns="http://www.w3.org/2000/svg">
<path fill-rule="evenodd" clip-rule="evenodd" d="M6.41671 6.41668C6.41671 3.88484 8.46821 1.83334 11 1.83334C13.5319 1.83334 15.5834 3.88484 15.5834 6.41668V9.16668H15.95C16.7567 9.16668 17.4167 9.82668 17.4167 10.6333V17.05C17.4167 18.26 16.4267 19.25 15.2167 19.25H6.78337C5.57337 19.25 4.58337 18.26 4.58337 17.05V10.6333C4.58337 9.82668 5.24337 9.16668 6.05004 9.16668H6.41671V6.41668ZM13.75 6.41668V9.16668H8.25004V6.41668C8.25004 4.89684 9.48021 3.66668 11 3.66668C12.5199 3.66668 13.75 4.89684 13.75 6.41668ZM11 11.2292C10.6355 11.2288 10.2817 11.3526 9.99696 11.5801C9.71219 11.8077 9.51341 12.1254 9.43336 12.4811C9.35331 12.8367 9.39677 13.209 9.55658 13.5366C9.71639 13.8642 9.98301 14.1277 10.3125 14.2835V16.5C10.3125 16.6823 10.385 16.8572 10.5139 16.9861C10.6428 17.1151 10.8177 17.1875 11 17.1875C11.1824 17.1875 11.3572 17.1151 11.4862 16.9861C11.6151 16.8572 11.6875 16.6823 11.6875 16.5V14.2835C12.0171 14.1277 12.2837 13.8642 12.4435 13.5366C12.6033 13.209 12.6468 12.8367 12.5667 12.4811C12.4867 12.1254 12.2879 11.8077 12.0031 11.5801C11.7183 11.3526 11.3646 11.2288 11 11.2292Z" fill="white"/>
</svg>
