<svg width="21" height="21" viewBox="0 0 21 21" fill="none" xmlns="http://www.w3.org/2000/svg">
<path d="M4.375 18.375C3.89375 18.375 3.48192 18.2038 3.1395 17.8614C2.79708 17.519 2.62558 17.1068 2.625 16.625V4.375C2.625 3.89375 2.7965 3.48192 3.1395 3.1395C3.4825 2.79708 3.89433 2.62558 4.375 2.625H9.625C9.87292 2.625 10.0809 2.709 10.2489 2.877C10.4169 3.045 10.5006 3.25267 10.5 3.5C10.4994 3.74733 10.4154 3.95529 10.248 4.12387C10.0806 4.29246 9.87292 4.37617 9.625 4.375H4.375V16.625H9.625C9.87292 16.625 10.0809 16.709 10.2489 16.877C10.4169 17.045 10.5006 17.2527 10.5 17.5C10.4994 17.7473 10.4154 17.9553 10.248 18.1239C10.0806 18.2925 9.87292 18.3762 9.625 18.375H4.375ZM15.0281 11.375H8.75C8.50208 11.375 8.29442 11.291 8.127 11.123C7.95958 10.955 7.87558 10.7473 7.875 10.5C7.87442 10.2527 7.95842 10.045 8.127 9.877C8.29558 9.709 8.50325 9.625 8.75 9.625H15.0281L13.3875 7.98438C13.2271 7.82396 13.1469 7.62708 13.1469 7.39375C13.1469 7.16042 13.2271 6.95625 13.3875 6.78125C13.5479 6.60625 13.7521 6.51496 14 6.50737C14.2479 6.49979 14.4594 6.58379 14.6344 6.75938L17.7625 9.8875C17.9375 10.0625 18.025 10.2667 18.025 10.5C18.025 10.7333 17.9375 10.9375 17.7625 11.1125L14.6344 14.2406C14.4594 14.4156 14.2517 14.4996 14.0114 14.4926C13.771 14.4856 13.5631 14.3943 13.3875 14.2188C13.2271 14.0437 13.1507 13.8361 13.1582 13.5957C13.1658 13.3554 13.2495 13.1547 13.4094 12.9938L15.0281 11.375Z" fill="white"/>
</svg>
