<svg width="207" height="61" viewBox="0 0 207 61" fill="none" xmlns="http://www.w3.org/2000/svg">
<path d="M32.81 49.555C34.2833 49.555 35.5017 50.0367 36.465 51C37.485 51.9067 37.995 53.0967 37.995 54.57C37.995 55.9867 37.485 57.1767 36.465 58.14C35.5017 59.0467 34.2833 59.5 32.81 59.5H5.185C3.71167 59.5 2.465 59.0183 1.445 58.055C0.481667 57.035 2.5332e-07 55.7883 2.5332e-07 54.315V5.185C2.5332e-07 3.71166 0.51 2.49333 1.53 1.53C2.55 0.509996 3.85333 -4.05312e-06 5.44 -4.05312e-06C6.8 -4.05312e-06 7.99 0.509996 9.01 1.53C10.0867 2.49333 10.625 3.71166 10.625 5.185V51L8.755 49.555H32.81ZM76.3745 14.025C77.8478 14.025 79.0662 14.535 80.0295 15.555C80.9928 16.5183 81.4745 17.7367 81.4745 19.21V40.8C81.4745 46.8067 79.8028 51.5667 76.4595 55.08C73.1162 58.5933 68.2995 60.35 62.0095 60.35C55.7195 60.35 50.9028 58.5933 47.5595 55.08C44.2728 51.5667 42.6295 46.8067 42.6295 40.8V19.21C42.6295 17.7367 43.1112 16.5183 44.0745 15.555C45.0378 14.535 46.2562 14.025 47.7295 14.025C49.2028 14.025 50.4212 14.535 51.3845 15.555C52.3478 16.5183 52.8295 17.7367 52.8295 19.21V40.8C52.8295 44.2567 53.5945 46.835 55.1245 48.535C56.6545 50.1783 58.9495 51 62.0095 51C65.1262 51 67.4495 50.1783 68.9795 48.535C70.5095 46.835 71.2745 44.2567 71.2745 40.8V19.21C71.2745 17.7367 71.7562 16.5183 72.7195 15.555C73.6828 14.535 74.9012 14.025 76.3745 14.025ZM112.152 13.175C116.686 13.175 120.029 14.28 122.182 16.49C124.336 18.6433 125.752 21.4483 126.432 24.905L124.987 24.14L125.667 22.78C126.347 21.4767 127.396 20.0883 128.812 18.615C130.229 17.085 131.929 15.81 133.912 14.79C135.952 13.7133 138.219 13.175 140.712 13.175C144.792 13.175 147.881 14.0533 149.977 15.81C152.131 17.5667 153.604 19.9183 154.397 22.865C155.191 25.755 155.587 28.985 155.587 32.555V54.315C155.587 55.7883 155.106 57.035 154.142 58.055C153.179 59.0183 151.961 59.5 150.487 59.5C149.014 59.5 147.796 59.0183 146.832 58.055C145.869 57.035 145.387 55.7883 145.387 54.315V32.555C145.387 30.685 145.161 29.0133 144.707 27.54C144.254 26.01 143.432 24.7917 142.242 23.885C141.052 22.9783 139.352 22.525 137.142 22.525C134.989 22.525 133.147 22.9783 131.617 23.885C130.087 24.7917 128.926 26.01 128.132 27.54C127.396 29.0133 127.027 30.685 127.027 32.555V54.315C127.027 55.7883 126.546 57.035 125.582 58.055C124.619 59.0183 123.401 59.5 121.927 59.5C120.454 59.5 119.236 59.0183 118.272 58.055C117.309 57.035 116.827 55.7883 116.827 54.315V32.555C116.827 30.685 116.601 29.0133 116.147 27.54C115.694 26.01 114.872 24.7917 113.682 23.885C112.492 22.9783 110.792 22.525 108.582 22.525C106.429 22.525 104.587 22.9783 103.057 23.885C101.527 24.7917 100.366 26.01 99.5722 27.54C98.8355 29.0133 98.4672 30.685 98.4672 32.555V54.315C98.4672 55.7883 97.9855 57.035 97.0222 58.055C96.0589 59.0183 94.8405 59.5 93.3672 59.5C91.8939 59.5 90.6755 59.0183 89.7122 58.055C88.7489 57.035 88.2672 55.7883 88.2672 54.315V19.21C88.2672 17.7367 88.7489 16.5183 89.7122 15.555C90.6755 14.535 91.8939 14.025 93.3672 14.025C94.8405 14.025 96.0589 14.535 97.0222 15.555C97.9855 16.5183 98.4672 17.7367 98.4672 19.21V22.865L97.1922 22.61C97.7022 21.6467 98.4105 20.6267 99.3172 19.55C100.224 18.4167 101.329 17.3683 102.632 16.405C103.936 15.4417 105.381 14.6767 106.967 14.11C108.554 13.4867 110.282 13.175 112.152 13.175ZM206.492 36.805C206.492 41.4517 205.443 45.56 203.347 49.13C201.307 52.6433 198.53 55.3917 195.017 57.375C191.56 59.3583 187.678 60.35 183.372 60.35C179.065 60.35 175.155 59.3583 171.642 57.375C168.185 55.3917 165.408 52.6433 163.312 49.13C161.272 45.56 160.252 41.4517 160.252 36.805C160.252 32.1583 161.272 28.0783 163.312 24.565C165.408 20.995 168.185 18.2183 171.642 16.235C175.155 14.195 179.065 13.175 183.372 13.175C187.678 13.175 191.56 14.195 195.017 16.235C198.53 18.2183 201.307 20.995 203.347 24.565C205.443 28.0783 206.492 32.1583 206.492 36.805ZM196.292 36.805C196.292 33.915 195.697 31.4217 194.507 29.325C193.373 27.1717 191.815 25.5 189.832 24.31C187.905 23.12 185.752 22.525 183.372 22.525C180.992 22.525 178.81 23.12 176.827 24.31C174.9 25.5 173.342 27.1717 172.152 29.325C171.018 31.4217 170.452 33.915 170.452 36.805C170.452 39.6383 171.018 42.1317 172.152 44.285C173.342 46.3817 174.9 48.025 176.827 49.215C178.81 50.405 180.992 51 183.372 51C185.752 51 187.905 50.405 189.832 49.215C191.815 48.025 193.373 46.3817 194.507 44.285C195.697 42.1317 196.292 39.6383 196.292 36.805Z" fill="#00673F"/>
</svg>
