<svg width="26" height="24" viewBox="0 0 26 24" fill="none" xmlns="http://www.w3.org/2000/svg">
<path fill-rule="evenodd" clip-rule="evenodd" d="M8.66667 7C8.66667 5.93913 9.12321 4.92172 9.93587 4.17157C10.7485 3.42143 11.8507 3 13 3C14.1493 3 15.2515 3.42143 16.0641 4.17157C16.8768 4.92172 17.3333 5.93913 17.3333 7C17.3333 8.06087 16.8768 9.07828 16.0641 9.82843C15.2515 10.5786 14.1493 11 13 11C11.8507 11 10.7485 10.5786 9.93587 9.82843C9.12321 9.07828 8.66667 8.06087 8.66667 7ZM8.66667 13C7.23008 13 5.85233 13.5268 4.8365 14.4645C3.82068 15.4021 3.25 16.6739 3.25 18C3.25 18.7956 3.59241 19.5587 4.2019 20.1213C4.8114 20.6839 5.63805 21 6.5 21H19.5C20.362 21 21.1886 20.6839 21.7981 20.1213C22.4076 19.5587 22.75 18.7956 22.75 18C22.75 16.6739 22.1793 15.4021 21.1635 14.4645C20.1477 13.5268 18.7699 13 17.3333 13H8.66667Z" fill="#009F61"/>
</svg>
