<svg width="327" height="327" viewBox="0 0 327 327" fill="none" xmlns="http://www.w3.org/2000/svg">
<path d="M52.2546 102.469C40.1883 119.329 31.0258 138.092 25.9115 157.836C21.9417 173.16 3.47928 261.293 129.492 281.665C265.812 303.705 294.215 244.034 302.514 191.622C317.112 99.493 273.621 46.1986 211.445 32.0918C183.774 25.8199 154.344 28.0828 128.766 39.5539C98.8456 52.974 71.7503 75.2427 52.2546 102.469Z" fill="#455A64"/>
<path d="M230.116 87.5706C236.921 88.3615 243.602 89.9937 250.005 92.4298C259.952 96.3538 265.903 105.216 277.767 107.825C277.767 107.825 292.632 126.137 277.767 154.017L256.983 150.845C253.938 150.369 250.831 150.478 247.827 151.166C243.733 152.12 236.356 153.075 226.094 151.408L230.116 87.5706Z" fill="#FFA8A7"/>
<path d="M156.6 162.735L172.362 171.917V235.44L156.528 226.14L156.6 162.735Z" fill="#009F61"/>
<path opacity="0.2" d="M156.6 162.735L172.362 171.917V235.44L156.528 226.14L156.6 162.735Z" fill="black"/>
<path d="M160.4 173.022L166.286 153.402C170.537 147.431 173.303 140.087 173.303 133.586C173.303 122.88 165.789 118.544 156.522 123.894C147.255 129.243 139.734 142.265 139.734 152.971C139.734 158.235 141.552 161.957 144.501 163.749L144.769 163.905L160.4 173.022Z" fill="#009F61"/>
<path d="M156.6 60.495L172.362 69.6772V133.207L156.528 123.9L156.6 60.495Z" fill="#009F61"/>
<path opacity="0.2" d="M156.6 60.495L172.362 69.6772V133.207L156.528 123.9L156.6 60.495Z" fill="black"/>
<path d="M223.903 65.1253L223.661 64.9814L223.897 65.1253H223.903Z" fill="#FFA8A7"/>
<path d="M222.726 64.4386L208.306 56.0413C195.226 47.9251 176.914 48.7688 156.6 60.495C156.574 60.5063 156.55 60.5218 156.528 60.5408L172.362 69.6968C191.988 58.3499 209.771 57.1792 222.726 64.4386Z" fill="#009F61"/>
<path d="M223.897 65.1253L223.661 64.9814L222.726 64.4386C209.77 57.1792 191.988 58.3499 172.368 69.6706V133.194C163.108 138.543 155.6 151.545 155.6 162.231C155.6 172.918 163.108 177.273 172.368 171.91V235.44C212.001 212.55 244.138 156.895 244.138 111.121C244.138 88.6955 236.421 72.8098 223.897 65.1253Z" fill="#009F61"/>
<path opacity="0.3" d="M223.897 65.1253L223.661 64.9814L222.726 64.4386C209.77 57.1792 191.988 58.3499 172.368 69.6706V133.194C163.108 138.543 155.6 151.545 155.6 162.231C155.6 172.918 163.108 177.273 172.368 171.91V235.44C212.001 212.55 244.138 156.895 244.138 111.121C244.138 88.6955 236.421 72.8098 223.897 65.1253Z" fill="white"/>
<path d="M227.958 93.2081C225.106 87.2639 220.554 82.2999 214.878 78.9443C203.329 72.2801 188.287 73.4376 172.368 82.2143V89.0159C172.852 88.7151 173.343 88.4273 173.84 88.1396C182.525 83.1234 190.844 80.5924 198.267 80.5924C203.035 80.5176 207.738 81.7092 211.896 84.0455C221.346 89.4999 226.788 100.886 227.363 116.275C227.402 117.19 227.422 118.119 227.422 119.061C227.422 154.501 202.845 197.626 172.342 216.14V222.936L173.814 222.111C206.618 203.145 233.328 156.94 233.328 119.061C233.328 108.969 231.477 100.225 227.958 93.2081Z" fill="white"/>
<path d="M219.574 127C219.574 112.253 214.447 101.167 205.134 95.7914C196.18 90.6248 184.591 91.4423 172.362 98.0738V104.882C172.846 104.581 173.336 104.274 173.833 103.993C180.373 100.225 186.58 98.3223 192.145 98.3223C195.67 98.2691 199.146 99.1539 202.217 100.886C209.633 105.17 213.714 114.443 213.714 127C213.714 153.683 195.304 186.102 172.388 200.248V207.056C172.872 206.795 173.362 206.52 173.859 206.232C199.051 191.668 219.574 156.123 219.574 127Z" fill="white"/>
<path d="M205.82 134.94C205.82 124.43 202.125 116.51 195.409 112.638C189.058 108.969 180.923 109.46 172.362 113.946V120.741C172.846 120.434 173.336 120.133 173.833 119.852C178.182 117.341 182.335 116.065 185.978 116.065C188.248 116.03 190.487 116.599 192.466 117.713C197.279 120.493 199.934 126.608 199.934 134.92C199.934 152.846 187.691 174.598 172.362 184.336V191.125C172.846 190.87 173.336 190.615 173.833 190.327C191.472 180.164 205.82 155.305 205.82 134.94Z" fill="white"/>
<path d="M184.236 159.448C190.792 148.093 190.791 135.82 184.235 132.034C177.679 128.249 167.049 134.385 160.493 145.74C153.938 157.095 153.938 169.368 160.495 173.154C167.051 176.939 177.68 170.803 184.236 159.448Z" fill="white"/>
<path d="M178.374 155.867C181.692 150.121 181.691 143.909 178.372 141.993C175.053 140.077 169.673 143.182 166.356 148.928C163.038 154.674 163.039 160.886 166.358 162.802C169.677 164.718 175.057 161.613 178.374 155.867Z" fill="#009F61"/>
<path opacity="0.3" d="M178.374 155.867C181.692 150.121 181.691 143.909 178.372 141.993C175.053 140.077 169.673 143.182 166.356 148.928C163.038 154.674 163.039 160.886 166.358 162.802C169.677 164.718 175.057 161.613 178.374 155.867Z" fill="white"/>
<path d="M247.376 103.986L239.626 101.841C237.777 101.33 235.843 101.201 233.942 101.462C228.481 102.22 216.938 103.816 214.231 104.143C210.699 104.575 208.927 109.238 211.379 113.077C213.832 116.916 219.574 122.069 237.245 120.787C237.245 120.787 245.924 143.337 267.532 130.865C273.915 127.196 269.448 111.18 247.376 103.986Z" fill="#FFA8A7"/>
<path d="M252.529 106.949C252.392 106.949 252.256 106.92 252.13 106.864C250.534 106.157 248.86 105.51 247.068 104.902L242.706 103.692C242.578 103.66 242.459 103.604 242.353 103.525C242.248 103.447 242.16 103.348 242.093 103.235C242.027 103.122 241.984 102.996 241.967 102.866C241.95 102.736 241.959 102.604 241.994 102.477C242.029 102.351 242.089 102.232 242.171 102.13C242.252 102.027 242.354 101.941 242.469 101.878C242.584 101.815 242.711 101.776 242.841 101.763C242.972 101.75 243.104 101.763 243.229 101.802L247.637 103.025C249.434 103.605 251.2 104.277 252.928 105.039C253.133 105.13 253.301 105.29 253.403 105.49C253.505 105.69 253.535 105.919 253.488 106.139C253.441 106.359 253.321 106.556 253.146 106.697C252.972 106.839 252.754 106.916 252.529 106.916V106.949Z" fill="#F28F8F"/>
<path d="M255.223 135.633C248.278 135.633 243.451 131.709 240.338 127.864C240.177 127.66 240.102 127.401 240.13 127.143C240.158 126.884 240.287 126.648 240.489 126.484C240.589 126.403 240.705 126.343 240.828 126.306C240.952 126.27 241.082 126.259 241.21 126.273C241.338 126.287 241.462 126.326 241.575 126.388C241.688 126.45 241.788 126.533 241.869 126.634C245.531 131.212 251.953 135.895 261.783 132.474C262.029 132.388 262.3 132.402 262.536 132.515C262.771 132.628 262.952 132.83 263.039 133.076C263.126 133.322 263.111 133.593 262.998 133.828C262.885 134.064 262.683 134.245 262.437 134.332C260.123 135.168 257.684 135.608 255.223 135.633Z" fill="#F28F8F"/>
<path d="M278.499 110.147C280.416 116.772 284.771 136.215 275.046 150.695C274.518 151.48 273.776 152.099 272.908 152.477C272.041 152.856 271.083 152.98 270.148 152.833L267.159 152.382C267.16 153.037 267.385 153.673 267.797 154.183C268.208 154.693 268.782 155.048 269.422 155.188L300.186 161.93V104.169L272.064 105.974L273.862 106.759C274.37 106.984 274.898 107.161 275.439 107.289C276.158 107.448 276.821 107.797 277.359 108.3C277.897 108.802 278.291 109.44 278.499 110.147Z" fill="#009F61"/>
<path d="M290.252 108.564C292.802 116.294 297.112 135.254 287.021 155.181C286.508 156.185 285.676 156.991 284.656 157.471C283.635 157.952 282.485 158.08 281.384 157.836L279.278 157.379C279.233 157.787 279.27 158.2 279.386 158.594C279.502 158.988 279.694 159.355 279.953 159.674C280.211 159.993 280.53 160.258 280.891 160.453C281.252 160.648 281.649 160.77 282.057 160.812L316.268 164.357C316.268 164.357 321.147 156.653 321.147 131.611C321.147 106.569 314.083 101.874 314.083 101.874L286.001 102.855C285.38 102.875 284.791 103.136 284.359 103.583C283.927 104.03 283.685 104.627 283.686 105.248L285.196 105.15C286.298 105.078 287.393 105.374 288.308 105.992C289.224 106.61 289.907 107.515 290.252 108.564Z" fill="#263238"/>
<path d="M302.802 154.763C302.803 155.573 302.564 156.365 302.115 157.039C301.666 157.713 301.027 158.239 300.279 158.55C299.531 158.86 298.708 158.942 297.913 158.785C297.119 158.628 296.389 158.239 295.815 157.666C295.242 157.094 294.852 156.365 294.693 155.57C294.535 154.776 294.615 153.952 294.925 153.204C295.235 152.455 295.759 151.816 296.433 151.365C297.106 150.915 297.898 150.675 298.708 150.675C299.793 150.675 300.833 151.105 301.601 151.872C302.368 152.638 302.8 153.678 302.802 154.763Z" fill="white"/>
<path d="M249.54 105.052C249.46 105.061 249.379 105.061 249.298 105.052C249.046 104.986 248.83 104.823 248.697 104.599C248.564 104.376 248.524 104.108 248.585 103.855C248.897 102.6 248.724 101.274 248.101 100.14C247.981 99.9137 247.955 99.649 248.028 99.4029C248.1 99.1568 248.267 98.9491 248.491 98.8242C248.715 98.6993 248.979 98.6672 249.227 98.7347C249.474 98.8023 249.685 98.9642 249.815 99.1856C250.675 100.759 250.909 102.6 250.469 104.339C250.412 104.543 250.291 104.722 250.124 104.851C249.956 104.979 249.751 105.05 249.54 105.052Z" fill="#F28F8F"/>
<path d="M253.83 150.852C253.613 150.85 253.402 150.776 253.231 150.641C253.06 150.506 252.939 150.318 252.886 150.107C252.834 149.896 252.853 149.673 252.941 149.474C253.029 149.275 253.181 149.111 253.373 149.007C254.659 148.299 255.758 147.296 256.579 146.079C257.4 144.862 257.919 143.467 258.095 142.01C258.108 141.881 258.146 141.756 258.208 141.642C258.27 141.528 258.353 141.427 258.454 141.346C258.554 141.264 258.67 141.203 258.794 141.166C258.918 141.129 259.048 141.117 259.177 141.13C259.306 141.143 259.431 141.182 259.545 141.243C259.659 141.305 259.759 141.388 259.841 141.489C259.923 141.589 259.984 141.705 260.021 141.829C260.058 141.953 260.07 142.083 260.057 142.212C259.852 143.987 259.223 145.686 258.222 147.166C257.221 148.646 255.879 149.863 254.308 150.714C254.163 150.8 253.999 150.847 253.83 150.852Z" fill="#F28F8F"/>
<path d="M219.339 110.663C219.103 110.663 218.861 110.663 218.626 110.663C216.167 110.487 214.048 109.251 213.093 107.439C213.017 107.286 213.004 107.109 213.057 106.947C213.109 106.785 213.223 106.649 213.375 106.57C213.526 106.49 213.702 106.473 213.866 106.522C214.029 106.571 214.167 106.682 214.25 106.831C215.14 108.525 217.141 109.244 218.724 109.362C220.633 109.499 222.563 108.969 224.427 108.459C224.983 108.309 225.512 108.119 225.663 107.805C225.737 107.538 225.737 107.255 225.663 106.988C225.48 106.133 225.165 105.312 224.727 104.555C224.68 104.481 224.648 104.397 224.634 104.31C224.62 104.223 224.623 104.134 224.644 104.049C224.665 103.963 224.703 103.882 224.756 103.812C224.809 103.741 224.876 103.682 224.952 103.638C225.028 103.594 225.113 103.566 225.201 103.555C225.288 103.544 225.377 103.551 225.462 103.576C225.546 103.601 225.625 103.642 225.693 103.698C225.762 103.754 225.818 103.823 225.859 103.901C226.363 104.76 226.727 105.694 226.938 106.667C227.087 107.194 227.066 107.755 226.879 108.27C226.461 109.238 225.368 109.538 224.78 109.695C223.017 110.259 221.187 110.585 219.339 110.663Z" fill="#F28F8F"/>
<path d="M77.6363 173.696C77.6363 173.696 61.8684 180.105 58.8077 185.082C55.747 190.059 51.5483 207.442 49.5078 219.417C47.4673 231.392 39.4624 240.96 39.4624 240.96L51.823 252.941L81.3576 194.434L77.6363 173.696Z" fill="#FFA8A7"/>
<path d="M90.906 198.816C90.906 153.036 123.044 97.3806 162.683 74.4971L146.849 65.3411C107.256 88.29 75.1512 143.88 75.1512 189.66C75.1512 213.511 83.882 229.966 97.8515 237.023L111.834 245.211C98.8913 237.677 90.906 221.628 90.906 198.816Z" fill="#009F61"/>
<path opacity="0.3" d="M90.906 198.816C90.906 153.036 123.044 97.3806 162.683 74.4971L146.849 65.3411C107.256 88.29 75.1512 143.88 75.1512 189.66C75.1512 213.511 83.882 229.966 97.8515 237.023L111.834 245.211C98.8913 237.677 90.906 221.628 90.906 198.816Z" fill="white"/>
<path d="M90.906 198.816C90.906 221.621 98.8848 237.67 111.795 245.204C124.705 252.738 142.794 251.744 162.683 240.26V176.737C153.428 182.087 145.92 177.751 145.92 167.064C145.92 156.378 153.428 143.37 162.683 138.027V74.5037C123.05 97.3871 90.906 153.036 90.906 198.816Z" fill="#009F61"/>
<path d="M162.689 93.8032V86.982C162.201 87.248 161.71 87.5226 161.218 87.806C128.413 106.772 101.704 152.977 101.704 190.857C101.704 209.823 108.244 224.093 120.173 230.973C125.222 233.844 130.944 235.32 136.751 235.25C137.438 235.25 138.131 235.25 138.831 235.191C146.293 234.793 154.364 232.301 162.669 227.729V220.96C162.185 221.261 161.695 221.549 161.198 221.837C160.282 222.364 159.367 222.866 158.451 223.341C144.953 230.391 132.487 231.313 123.135 225.898C113.122 220.117 107.609 207.684 107.609 190.883C107.609 155.443 132.186 112.318 162.689 93.8032Z" fill="white"/>
<path d="M161.218 205.951C150.342 212.236 140.29 213.335 132.86 209.051C125.431 204.767 121.363 195.5 121.363 182.943C121.363 156.26 139.773 123.841 162.689 109.695V102.894C162.199 103.162 161.708 103.43 161.218 103.718C136.032 118.276 115.477 153.821 115.477 182.943C115.477 197.691 120.604 208.776 129.917 214.152C133.874 216.406 138.359 217.566 142.912 217.514C149.06 217.514 155.77 215.624 162.689 211.87V205.062C162.192 205.356 161.715 205.67 161.218 205.951Z" fill="white"/>
<path d="M161.218 190.072C154.024 194.231 147.399 194.99 142.585 192.211C137.772 189.431 135.116 183.316 135.116 175.004C135.116 157.078 147.353 135.326 162.689 125.588V118.793C162.199 119.048 161.715 119.309 161.218 119.597C143.56 129.78 129.23 154.632 129.23 175.004C129.23 185.507 132.926 193.434 139.642 197.305C142.506 198.944 145.754 199.788 149.053 199.751C153.311 199.751 157.934 198.443 162.689 195.971V189.183C162.192 189.49 161.715 189.784 161.218 190.072Z" fill="white"/>
<path opacity="0.5" d="M90.906 198.816C90.906 221.621 98.8848 237.67 111.795 245.204C124.705 252.738 142.794 251.744 162.683 240.26V176.737C153.428 182.087 145.92 177.751 145.92 167.064C145.92 156.378 153.428 143.37 162.683 138.027V74.5037C123.05 97.3871 90.906 153.036 90.906 198.816Z" fill="white"/>
<path d="M104.418 225.172C111.566 223.426 117.354 214.512 117.354 214.512C117.354 214.512 123.626 189.169 133.213 189.536C133.676 189.557 134.13 189.672 134.547 189.874C134.965 190.076 135.336 190.361 135.639 190.712C135.942 191.063 136.17 191.472 136.31 191.914C136.449 192.356 136.497 192.822 136.451 193.283C136.039 197.436 131.65 214.002 129.315 221.968C126.477 231.666 109.48 246.506 109.48 246.506C109.48 246.506 97.276 226.938 104.418 225.172Z" fill="#FFA8A7"/>
<path d="M100.356 213.335C107.433 211.301 112.854 202.158 112.854 202.158C112.854 202.158 118.086 176.587 127.687 176.567C128.15 176.569 128.607 176.665 129.032 176.85C129.456 177.034 129.839 177.303 130.156 177.64C130.473 177.978 130.718 178.376 130.876 178.811C131.034 179.246 131.101 179.708 131.075 180.17C130.833 184.343 127.151 201.066 125.104 209.123C122.658 218.933 106.282 234.446 106.282 234.446C106.282 234.446 93.2866 215.375 100.356 213.335Z" fill="#FFA8A7"/>
<path d="M114.666 229.292C114.46 229.292 114.258 229.232 114.086 229.12C113.913 229.008 113.777 228.848 113.693 228.66C113.609 228.472 113.582 228.263 113.614 228.06C113.646 227.856 113.737 227.667 113.874 227.514C118.25 222.635 122.638 214.623 124.07 208.868C125.025 205.049 126.575 198.404 127.89 192.106C127.917 191.967 127.971 191.835 128.049 191.717C128.128 191.6 128.229 191.499 128.347 191.421C128.464 191.342 128.597 191.288 128.735 191.262C128.874 191.235 129.017 191.236 129.155 191.265C129.294 191.295 129.425 191.351 129.541 191.431C129.658 191.511 129.757 191.614 129.833 191.733C129.91 191.852 129.962 191.985 129.986 192.124C130.011 192.263 130.007 192.406 129.976 192.544C128.831 198.005 127.288 204.774 126.144 209.385C124.607 215.532 120.114 223.773 115.457 228.939C115.358 229.051 115.236 229.141 115.1 229.202C114.963 229.263 114.815 229.293 114.666 229.292Z" fill="#F28F8F"/>
<path d="M94.8758 203.185C101.946 201.144 107.367 192.001 107.367 192.001C107.367 192.001 112.599 166.43 122.2 166.41C122.663 166.415 123.121 166.514 123.545 166.701C123.969 166.888 124.35 167.16 124.666 167.5C124.981 167.84 125.224 168.24 125.379 168.677C125.534 169.114 125.598 169.577 125.568 170.04C125.326 174.206 121.611 190.935 119.604 198.993C117.158 208.803 100.775 224.315 100.775 224.315C100.775 224.315 87.806 205.219 94.8758 203.185Z" fill="#FFA8A7"/>
<path d="M72.3782 197.92C72.3782 197.92 77.5382 204.061 84.608 202.027C91.6777 199.993 97.0994 190.844 97.0994 190.844C97.0994 190.844 102.331 165.272 111.932 165.253C112.395 165.255 112.854 165.351 113.279 165.536C113.703 165.721 114.086 165.991 114.403 166.328C114.72 166.666 114.965 167.065 115.123 167.501C115.28 167.937 115.347 168.4 115.32 168.863C115.078 173.029 111.363 189.758 109.355 197.815C106.909 207.625 90.5267 223.138 90.5267 223.138L67.859 209.45L72.3782 197.92Z" fill="#FFA8A7"/>
<path d="M109.48 246.506C109.48 246.506 95.4644 261.672 66.9696 271.848L51.8295 252.882L67.859 207.318L93.5939 210.588C93.5939 210.588 117.066 223.145 109.48 246.506Z" fill="#FFA8A7"/>
<path d="M97.6095 216.834C97.3468 216.836 97.0925 216.741 96.8967 216.566C96.6861 216.377 96.5588 216.113 96.5429 215.831C96.527 215.549 96.6236 215.272 96.8116 215.061C103.299 207.789 107.276 201.739 108.322 197.554C110.533 188.679 114.031 172.702 114.26 168.778C114.291 168.506 114.424 168.257 114.632 168.081C114.841 167.905 115.109 167.815 115.382 167.831C115.655 167.847 115.911 167.967 116.098 168.166C116.284 168.366 116.388 168.629 116.386 168.902C116.131 173.277 112.344 190.203 110.389 198.051C108.963 203.76 103.083 211.209 98.4009 216.461C98.3031 216.576 98.1819 216.669 98.0454 216.733C97.909 216.797 97.7604 216.831 97.6095 216.834Z" fill="#F28F8F"/>
<path d="M106.602 222.36C106.329 222.361 106.066 222.256 105.87 222.066C105.767 221.97 105.685 221.856 105.627 221.728C105.569 221.601 105.537 221.463 105.533 221.323C105.529 221.183 105.552 221.044 105.602 220.913C105.652 220.783 105.727 220.663 105.824 220.562C110.519 215.571 116.942 205.179 118.577 198.731C119.924 193.322 122.069 183.879 123.39 177.038C123.416 176.9 123.469 176.769 123.546 176.651C123.623 176.534 123.723 176.433 123.839 176.354C123.955 176.275 124.085 176.22 124.222 176.191C124.36 176.163 124.501 176.161 124.639 176.188C124.777 176.214 124.909 176.267 125.026 176.344C125.143 176.421 125.244 176.52 125.323 176.636C125.402 176.752 125.457 176.882 125.486 177.02C125.515 177.157 125.516 177.299 125.49 177.437C124.182 184.317 121.997 193.787 120.643 199.248C118.91 206.2 112.259 216.834 107.374 222.02C107.275 222.126 107.156 222.211 107.023 222.27C106.89 222.328 106.747 222.359 106.602 222.36Z" fill="#F28F8F"/>
<path d="M29.927 248.69L40.1948 238.88C40.1948 238.88 68.1468 247.186 69.6248 273.3L60.5473 279.781L29.927 248.69Z" fill="#009F61"/>
<path opacity="0.3" d="M29.927 248.69L40.1948 238.88C40.1948 238.88 68.1468 247.186 69.6248 273.3L60.5473 279.781L29.927 248.69Z" fill="white"/>
<path d="M29.999 244.262C35.9308 245.806 60.6716 254.027 63.5426 283.921C63.5817 284.34 63.5294 284.762 63.3894 285.158C63.2493 285.554 63.025 285.915 62.7317 286.217L43.7657 305.928C43.7657 305.928 0.0523257 292.475 6.62503 259.788L27.71 244.688C28.0363 244.452 28.4109 244.291 28.8067 244.218C29.2025 244.144 29.6098 244.16 29.999 244.262Z" fill="#263238"/>
<path d="M57.2642 282.155C57.2642 282.895 57.0448 283.618 56.6338 284.234C56.2227 284.849 55.6385 285.328 54.9549 285.611C54.2714 285.894 53.5192 285.969 52.7936 285.824C52.0679 285.68 51.4013 285.324 50.8782 284.8C50.355 284.277 49.9987 283.611 49.8544 282.885C49.71 282.159 49.7841 281.407 50.0672 280.724C50.3504 280.04 50.8299 279.456 51.445 279.045C52.0602 278.634 52.7835 278.414 53.5234 278.414C54.0146 278.414 54.5011 278.511 54.9549 278.699C55.4088 278.887 55.8212 279.163 56.1686 279.51C56.5159 279.857 56.7915 280.27 56.9795 280.724C57.1675 281.177 57.2642 281.664 57.2642 282.155Z" fill="white"/>
<path d="M79.788 203.126C79.6843 203.126 79.581 203.113 79.4806 203.087C77.074 202.342 74.9058 200.977 73.1941 199.129C71.4824 197.28 70.2875 195.014 69.7295 192.557C69.6688 192.281 69.7205 191.991 69.8732 191.753C70.0259 191.514 70.2671 191.346 70.5437 191.285C70.8204 191.224 71.1098 191.276 71.3484 191.429C71.5869 191.582 71.755 191.823 71.8157 192.099C72.303 194.179 73.3223 196.097 74.7738 197.664C76.2252 199.231 78.059 200.394 80.0954 201.04C80.3399 201.114 80.5497 201.273 80.6866 201.489C80.8234 201.705 80.8782 201.962 80.841 202.215C80.8037 202.468 80.6769 202.699 80.4837 202.866C80.2904 203.033 80.0435 203.125 79.788 203.126Z" fill="#F28F8F"/>
<path d="M101.723 76.4984C103.926 76.4984 105.713 74.7123 105.713 72.509C105.713 70.3057 103.926 68.5196 101.723 68.5196C99.5199 68.5196 97.7338 70.3057 97.7338 72.509C97.7338 74.7123 99.5199 76.4984 101.723 76.4984Z" fill="#FAFAFA"/>
<path d="M219.574 250.495C221.777 250.495 223.563 248.709 223.563 246.506C223.563 244.302 221.777 242.516 219.574 242.516C217.371 242.516 215.585 244.302 215.585 246.506C215.585 248.709 217.371 250.495 219.574 250.495Z" fill="#FAFAFA"/>
<path d="M52.6339 161.139C52.63 161.702 52.4594 162.252 52.1434 162.719C51.8274 163.185 51.3804 163.547 50.8586 163.76C50.3369 163.973 49.7639 164.026 49.2119 163.913C48.6598 163.8 48.1536 163.527 47.7571 163.126C47.3605 162.726 47.0914 162.218 46.9837 161.665C46.876 161.112 46.9345 160.539 47.1519 160.019C47.3693 159.499 47.7358 159.056 48.2051 158.744C48.6745 158.432 49.2256 158.267 49.789 158.268C50.1646 158.269 50.5363 158.344 50.8828 158.489C51.2292 158.634 51.5437 158.846 51.808 159.112C52.0724 159.379 52.2814 159.696 52.4231 160.043C52.5649 160.391 52.6365 160.764 52.6339 161.139Z" fill="#FAFAFA"/>
<path d="M237.886 59.8737C239.457 59.8737 240.731 58.6 240.731 57.0288C240.731 55.4576 239.457 54.1839 237.886 54.1839C236.315 54.1839 235.041 55.4576 235.041 57.0288C235.041 58.6 236.315 59.8737 237.886 59.8737Z" fill="#FAFAFA"/>
<path d="M83.8951 109.421C83.8887 109.807 83.7681 110.183 83.5487 110.502C83.3292 110.82 83.0206 111.066 82.6616 111.21C82.3025 111.353 81.9091 111.388 81.5307 111.308C81.1523 111.229 80.8058 111.04 80.5346 110.764C80.2635 110.488 80.0799 110.139 80.0068 109.759C79.9337 109.379 79.9744 108.986 80.1238 108.63C80.2732 108.273 80.5247 107.969 80.8466 107.755C81.1685 107.54 81.5465 107.426 81.9331 107.426C82.4559 107.436 82.9539 107.651 83.3206 108.024C83.6873 108.396 83.8935 108.898 83.8951 109.421Z" fill="#FAFAFA"/>
<path d="M207.815 239.593C207.809 239.978 207.689 240.353 207.471 240.67C207.253 240.988 206.946 241.234 206.589 241.379C206.232 241.523 205.84 241.559 205.462 241.483C205.085 241.406 204.738 241.22 204.466 240.947C204.194 240.675 204.007 240.328 203.931 239.951C203.854 239.573 203.89 239.181 204.034 238.824C204.179 238.467 204.425 238.16 204.743 237.942C205.06 237.724 205.435 237.605 205.82 237.598C206.084 237.594 206.345 237.642 206.589 237.741C206.833 237.84 207.055 237.986 207.241 238.173C207.427 238.359 207.574 238.58 207.672 238.824C207.771 239.068 207.819 239.33 207.815 239.593Z" fill="#FAFAFA"/>
<path d="M114.489 74.5037C114.496 74.8995 114.384 75.2883 114.169 75.6206C113.954 75.9529 113.645 76.2137 113.281 76.3697C112.917 76.5257 112.515 76.5699 112.126 76.4967C111.737 76.4234 111.378 76.2361 111.096 75.9585C110.814 75.6808 110.621 75.3255 110.541 74.9377C110.461 74.5499 110.499 74.1472 110.649 73.7808C110.799 73.4144 111.054 73.1009 111.383 72.8803C111.712 72.6596 112.099 72.5417 112.495 72.5417C112.755 72.5373 113.014 72.5849 113.255 72.6815C113.497 72.7782 113.717 72.922 113.903 73.1047C114.089 73.2873 114.236 73.505 114.337 73.7452C114.437 73.9854 114.489 74.2433 114.489 74.5037Z" fill="#FAFAFA"/>
<path d="M236.794 228.246C236.794 228.641 236.677 229.026 236.458 229.354C236.238 229.682 235.927 229.938 235.562 230.089C235.198 230.24 234.797 230.279 234.41 230.202C234.023 230.125 233.668 229.935 233.389 229.656C233.11 229.378 232.92 229.022 232.843 228.635C232.766 228.248 232.805 227.847 232.956 227.483C233.107 227.118 233.363 226.807 233.691 226.587C234.019 226.368 234.405 226.251 234.799 226.251C235.328 226.253 235.834 226.464 236.208 226.837C236.581 227.211 236.792 227.718 236.794 228.246Z" fill="#FAFAFA"/>
<path d="M69.8537 161.139C69.8602 161.536 69.7479 161.926 69.5312 162.259C69.3146 162.592 69.0034 162.853 68.6376 163.008C68.2718 163.163 67.8681 163.205 67.4781 163.129C67.0882 163.054 66.7298 162.863 66.4488 162.582C66.1679 162.301 65.9773 161.943 65.9014 161.553C65.8255 161.163 65.8677 160.759 66.0227 160.393C66.1777 160.027 66.4384 159.716 66.7714 159.5C67.1044 159.283 67.4945 159.171 67.8917 159.177C68.4121 159.177 68.9111 159.384 69.2791 159.752C69.647 160.12 69.8537 160.619 69.8537 161.139Z" fill="#FAFAFA"/>
<path d="M253.36 77.172C253.353 77.5586 253.233 77.9347 253.013 78.253C252.794 78.5713 252.485 78.8177 252.126 78.9612C251.767 79.1047 251.374 79.1389 250.995 79.0595C250.617 78.9802 250.27 78.7908 249.999 78.5151C249.728 78.2395 249.544 77.8899 249.471 77.5102C249.398 77.1305 249.439 76.7377 249.588 76.3811C249.738 76.0245 249.989 75.72 250.311 75.5058C250.633 75.2916 251.011 75.1773 251.398 75.1773C251.92 75.1875 252.418 75.402 252.785 75.7748C253.152 76.1476 253.358 76.6491 253.36 77.172Z" fill="#FAFAFA"/>
<path d="M60.9659 135.855L65.8774 138.543L60.9659 141.225L58.2779 146.143L55.59 141.225L50.6785 138.543L55.59 135.855L58.2779 130.944L60.9659 135.855Z" fill="#009F61"/>
<path d="M192.315 254.975L197.227 257.663L192.315 260.351L189.627 265.262L186.939 260.351L182.028 257.663L186.939 254.975L189.627 250.063L192.315 254.975Z" fill="#009F61"/>
<path d="M208.508 29.0114L213.42 31.6994L208.508 34.3873L205.82 39.2989L203.132 34.3873L198.221 31.6994L203.132 29.0114L205.82 24.0999L208.508 29.0114Z" fill="#009F61"/>
<path d="M221.366 41.7514L223.818 43.0921L221.366 44.4393L220.019 46.8918L218.678 44.4393L216.219 43.0921L218.678 41.7514L220.019 39.2989L221.366 41.7514Z" fill="#009F61"/>
<path d="M157.411 39.9529L160.727 41.7644L157.411 43.576L155.593 46.8918L153.782 43.576L150.466 41.7644L153.782 39.9529L155.593 36.6305L157.411 39.9529Z" fill="#009F61"/>
<path d="M156.94 256.322L159.393 257.663L156.94 259.01L155.593 261.463L154.252 259.01L151.793 257.663L154.252 256.322L155.593 253.863L156.94 256.322Z" fill="#009F61"/>
<path d="M260.41 166.024L262.869 167.365L260.41 168.706L259.069 171.165L257.722 168.706L255.269 167.365L257.722 166.024L259.069 163.565L260.41 166.024Z" fill="#009F61"/>
<path d="M273.071 189.49L234.492 167.365L207.88 173.075L216.402 198.921L254.982 221.045L246.46 195.193L273.071 189.49Z" fill="#009F61"/>
<path opacity="0.3" d="M273.071 189.49L234.492 167.365L207.88 173.075L216.402 198.921L254.982 221.045L246.46 195.193L273.071 189.49Z" fill="black"/>
<path d="M222.412 199.136C222.274 199.136 222.14 199.093 222.028 199.012C221.917 198.931 221.834 198.816 221.791 198.685L215.029 178.182L223.982 176.26C224.066 176.241 224.153 176.24 224.238 176.255C224.323 176.271 224.403 176.303 224.476 176.35C224.548 176.396 224.61 176.457 224.659 176.528C224.708 176.599 224.742 176.679 224.76 176.763C224.795 176.932 224.762 177.108 224.667 177.253C224.573 177.397 224.425 177.499 224.257 177.535L216.729 179.15L223.014 198.28C223.068 198.445 223.054 198.624 222.975 198.778C222.897 198.933 222.76 199.05 222.595 199.104C222.536 199.122 222.474 199.133 222.412 199.136Z" fill="#009F61"/>
<path d="M229.443 176.41C229.269 176.428 229.096 176.377 228.96 176.267C228.825 176.157 228.738 175.998 228.72 175.825C228.702 175.651 228.753 175.478 228.863 175.342C228.973 175.207 229.132 175.12 229.305 175.102L237.749 173.31C237.835 173.29 237.924 173.287 238.011 173.301C238.098 173.315 238.181 173.346 238.256 173.393C238.331 173.439 238.396 173.5 238.448 173.572C238.499 173.643 238.536 173.724 238.556 173.81C238.577 173.896 238.58 173.985 238.565 174.072C238.551 174.159 238.52 174.243 238.473 174.318C238.427 174.393 238.366 174.458 238.295 174.509C238.223 174.561 238.142 174.598 238.056 174.618L229.554 176.397L229.443 176.41Z" fill="#009F61"/>
<path d="M223.334 181.524C223.161 181.542 222.987 181.491 222.852 181.381C222.716 181.271 222.63 181.112 222.612 180.939C222.594 180.765 222.645 180.592 222.755 180.456C222.865 180.321 223.024 180.234 223.197 180.216L238.54 176.946C238.704 176.923 238.87 176.963 239.005 177.058C239.141 177.152 239.235 177.295 239.27 177.456C239.305 177.618 239.277 177.786 239.193 177.928C239.108 178.07 238.973 178.175 238.815 178.222L223.472 181.492C223.428 181.509 223.382 181.52 223.334 181.524Z" fill="#009F61"/>
<path d="M227.389 201.903C227.251 201.903 227.117 201.859 227.005 201.778C226.894 201.697 226.811 201.583 226.768 201.452L224.263 193.839C224.235 193.758 224.224 193.671 224.23 193.585C224.236 193.499 224.258 193.415 224.297 193.338C224.335 193.261 224.388 193.192 224.453 193.136C224.518 193.079 224.593 193.036 224.675 193.008C224.757 192.981 224.844 192.97 224.93 192.976C225.016 192.982 225.101 193.005 225.178 193.044C225.255 193.083 225.324 193.137 225.38 193.203C225.436 193.269 225.479 193.345 225.506 193.427L228.011 201.046C228.064 201.21 228.051 201.389 227.974 201.543C227.897 201.697 227.762 201.815 227.599 201.87C227.531 201.891 227.46 201.902 227.389 201.903Z" fill="#009F61"/>
<path d="M248.304 187.319C248.152 187.322 248.004 187.272 247.884 187.178C247.765 187.084 247.682 186.951 247.65 186.802C247.615 186.634 247.648 186.459 247.741 186.314C247.834 186.17 247.98 186.068 248.147 186.03L254.746 184.611C254.92 184.575 255.1 184.609 255.249 184.706C255.397 184.802 255.501 184.954 255.537 185.128C255.574 185.301 255.54 185.482 255.443 185.63C255.346 185.779 255.194 185.883 255.021 185.919L248.422 187.332C248.382 187.332 248.343 187.328 248.304 187.319Z" fill="#009F61"/>
<path d="M236.454 207.599C236.316 207.599 236.181 207.555 236.07 207.474C235.958 207.393 235.875 207.279 235.832 207.148L230.26 190.229C230.233 190.147 230.221 190.061 230.227 189.975C230.233 189.889 230.255 189.805 230.294 189.728C230.332 189.651 230.385 189.582 230.45 189.525C230.515 189.469 230.591 189.426 230.672 189.398C230.754 189.371 230.841 189.36 230.927 189.366C231.014 189.372 231.098 189.395 231.175 189.434C231.252 189.473 231.321 189.527 231.377 189.593C231.434 189.658 231.476 189.735 231.503 189.817L237.075 206.736C237.103 206.818 237.114 206.905 237.107 206.991C237.101 207.077 237.078 207.161 237.039 207.239C237 207.316 236.946 207.385 236.881 207.441C236.815 207.497 236.739 207.54 236.656 207.567C236.591 207.587 236.522 207.598 236.454 207.599Z" fill="#009F61"/>
<path d="M245.531 192.459C245.358 192.477 245.184 192.426 245.049 192.316C244.913 192.206 244.827 192.047 244.809 191.874C244.79 191.7 244.842 191.527 244.952 191.391C245.061 191.256 245.22 191.169 245.394 191.151L261.992 187.593C262.079 187.568 262.169 187.561 262.258 187.572C262.348 187.584 262.433 187.613 262.511 187.659C262.588 187.705 262.655 187.766 262.707 187.839C262.76 187.912 262.797 187.995 262.816 188.083C262.834 188.171 262.835 188.262 262.817 188.35C262.8 188.438 262.764 188.522 262.712 188.595C262.661 188.669 262.595 188.731 262.518 188.778C262.442 188.825 262.356 188.856 262.267 188.869L245.669 192.426L245.531 192.459Z" fill="#009F61"/>
<path d="M241.607 210.313C241.469 210.313 241.335 210.27 241.223 210.188C241.112 210.107 241.029 209.993 240.986 209.862L238.213 201.432C238.167 201.269 238.185 201.095 238.264 200.946C238.344 200.796 238.478 200.683 238.639 200.631C238.8 200.578 238.975 200.59 239.127 200.664C239.279 200.738 239.397 200.868 239.456 201.027L242.229 209.437C242.282 209.602 242.268 209.781 242.19 209.936C242.111 210.09 241.975 210.207 241.81 210.261C241.745 210.288 241.677 210.306 241.607 210.313Z" fill="#009F61"/>
<path d="M224.119 185.396C223.717 185.397 223.322 185.291 222.975 185.089L171.309 155.273C170.798 154.962 170.429 154.463 170.281 153.884C170.134 153.305 170.218 152.691 170.517 152.173C170.816 151.655 171.306 151.275 171.882 151.114C172.457 150.952 173.073 151.023 173.598 151.309L225.264 181.125C225.7 181.377 226.04 181.766 226.233 182.232C226.426 182.697 226.459 183.213 226.329 183.699C226.199 184.186 225.911 184.616 225.512 184.923C225.112 185.229 224.623 185.396 224.119 185.396Z" fill="#263238"/>
</svg>
