<svg width="400" height="400" viewBox="0 0 400 400" fill="none" xmlns="http://www.w3.org/2000/svg">
<path d="M400 305.92H0V306.12H400V305.92Z" fill="#EBEBEB"/>
<path d="M359.92 318.792H333.424V318.992H359.92V318.792Z" fill="#EBEBEB"/>
<path d="M264.976 320.968H258.024V321.168H264.976V320.968Z" fill="#EBEBEB"/>
<path d="M332.624 311.368H317.272V311.568H332.624V311.368Z" fill="#EBEBEB"/>
<path d="M76.52 312.712H41.968V312.912H76.52V312.712Z" fill="#EBEBEB"/>
<path d="M88.712 312.712H83.648V312.912H88.712V312.712Z" fill="#EBEBEB"/>
<path d="M180.12 316.088H105.176V316.288H180.12V316.088Z" fill="#EBEBEB"/>
<path d="M189.6 270.24H35.128C33.9179 270.238 32.758 269.756 31.9031 268.899C31.0482 268.043 30.568 266.882 30.568 265.672V48.528C30.5785 47.3248 31.0633 46.1744 31.9171 45.3266C32.7709 44.4788 33.9248 44.0021 35.128 44H189.6C190.812 44 191.973 44.4813 192.83 45.3379C193.687 46.1946 194.168 47.3565 194.168 48.568V265.672C194.168 266.884 193.687 268.045 192.83 268.902C191.973 269.759 190.812 270.24 189.6 270.24ZM35.128 44.16C33.9709 44.1621 32.862 44.6233 32.0445 45.4422C31.2271 46.2611 30.768 47.3709 30.768 48.528V265.672C30.768 266.829 31.2271 267.939 32.0445 268.758C32.862 269.577 33.9709 270.038 35.128 270.04H189.6C190.758 270.038 191.868 269.577 192.686 268.758C193.505 267.94 193.966 266.83 193.968 265.672V48.528C193.966 47.3702 193.505 46.2604 192.686 45.4417C191.868 44.623 190.758 44.1621 189.6 44.16H35.128Z" fill="#EBEBEB"/>
<path d="M362.648 270.24H208.168C206.957 270.238 205.797 269.756 204.94 268.9C204.084 268.044 203.602 266.883 203.6 265.672V48.528C203.613 47.3241 204.099 46.1737 204.954 45.3261C205.809 44.4785 206.964 44.002 208.168 44H362.648C363.85 44.0042 365.002 44.4818 365.854 45.3294C366.706 46.177 367.19 47.3262 367.2 48.528V265.672C367.2 266.881 366.721 268.04 365.868 268.896C365.015 269.753 363.857 270.236 362.648 270.24ZM208.168 44.16C207.01 44.1621 205.9 44.623 205.082 45.4417C204.263 46.2604 203.802 47.3702 203.8 48.528V265.672C203.802 266.83 204.263 267.94 205.082 268.758C205.9 269.577 207.01 270.038 208.168 270.04H362.648C363.806 270.038 364.916 269.577 365.734 268.758C366.553 267.94 367.014 266.83 367.016 265.672V48.528C367.014 47.3702 366.553 46.2604 365.734 45.4417C364.916 44.623 363.806 44.1621 362.648 44.16H208.168Z" fill="#EBEBEB"/>
<path d="M119.544 158.792H114.16V306.12H119.544V158.792Z" fill="#F5F5F5"/>
<path d="M140.832 177.496H135.448V306.12H140.832V177.496Z" fill="#F5F5F5"/>
<path d="M161.92 196.2H156.536V306.12H161.92V196.2Z" fill="#F5F5F5"/>
<path d="M183.016 183.728H177.632V306.12H183.016V183.728Z" fill="#F5F5F5"/>
<path d="M204.112 177.496H198.728V306.12H204.112V177.496Z" fill="#F5F5F5"/>
<path d="M225.2 165.024H219.816V306.12H225.2V165.024Z" fill="#F5F5F5"/>
<path d="M246.296 171.264H240.912V306.12H246.296V171.264Z" fill="#F5F5F5"/>
<path d="M267.392 165.024H262.008V306.12H267.392V165.024Z" fill="#F5F5F5"/>
<path d="M288.48 152.552H283.096V306.112H288.48V152.552Z" fill="#F5F5F5"/>
<path d="M309.576 140.088H304.192V306.12H309.576V140.088Z" fill="#F5F5F5"/>
<path d="M330.664 127.616H325.28V306.12H330.664V127.616Z" fill="#F5F5F5"/>
<path d="M159.2 187.44C158.9 187.428 158.615 187.305 158.4 187.096L113.328 143.152C113.1 142.929 112.97 142.625 112.966 142.306C112.962 141.987 113.085 141.68 113.308 141.452C113.531 141.224 113.835 141.094 114.154 141.09C114.473 141.086 114.78 141.209 115.008 141.432L159.352 184.672L221.808 139.072C222.05 138.9 222.346 138.822 222.642 138.855C222.937 138.887 223.21 139.027 223.408 139.248L243.856 162.4L328.496 113.904C328.633 113.826 328.784 113.775 328.941 113.755C329.097 113.736 329.256 113.747 329.409 113.788C329.561 113.83 329.704 113.901 329.828 113.998C329.953 114.095 330.058 114.215 330.136 114.352C330.214 114.489 330.265 114.64 330.285 114.797C330.304 114.954 330.293 115.113 330.252 115.265C330.21 115.417 330.139 115.56 330.042 115.684C329.945 115.809 329.825 115.914 329.688 115.992L244.2 164.984C243.96 165.12 243.68 165.169 243.408 165.124C243.136 165.079 242.888 164.942 242.704 164.736L222.336 141.696L159.936 187.208C159.723 187.364 159.464 187.446 159.2 187.44Z" fill="#F0F0F0"/>
<path d="M154.12 305.2L114.784 150.072L116.752 142.32H114.704V98.016H109.424V142.32H107.376L109.344 150.072L70 305.2H75.448L109.424 171.216V306.016H114.704V171.216L148.68 305.2H154.12Z" fill="#E0E0E0"/>
<path d="M141.703 148.531C145.567 132.16 135.428 115.757 119.057 111.893C102.687 108.029 86.2834 118.168 82.4196 134.539C78.5558 150.909 88.6946 167.313 105.065 171.176C121.436 175.04 137.839 164.901 141.703 148.531Z" fill="#E6E6E6"/>
<path d="M112.064 167.544C126.423 167.544 138.064 155.903 138.064 141.544C138.064 127.185 126.423 115.544 112.064 115.544C97.7046 115.544 86.064 127.185 86.064 141.544C86.064 155.903 97.7046 167.544 112.064 167.544Z" fill="#F5F5F5"/>
<path d="M112.064 161.896C123.304 161.896 132.416 152.784 132.416 141.544C132.416 130.304 123.304 121.192 112.064 121.192C100.824 121.192 91.712 130.304 91.712 141.544C91.712 152.784 100.824 161.896 112.064 161.896Z" fill="#E6E6E6"/>
<path d="M118.451 156.951C126.962 153.426 131.004 143.668 127.478 135.157C123.953 126.647 114.196 122.605 105.685 126.13C97.1741 129.656 93.1326 139.413 96.6579 147.924C100.183 156.435 109.94 160.476 118.451 156.951Z" fill="#F5F5F5"/>
<path d="M123.328 144.194C124.796 137.972 120.943 131.737 114.72 130.268C108.498 128.8 102.263 132.653 100.795 138.876C99.3262 145.098 103.18 151.333 109.402 152.801C115.624 154.27 121.859 150.416 123.328 144.194Z" fill="#E6E6E6"/>
<path d="M115.249 149.22C119.49 147.463 121.504 142.601 119.747 138.36C117.991 134.119 113.128 132.105 108.887 133.861C104.646 135.618 102.632 140.48 104.389 144.721C106.146 148.963 111.008 150.977 115.249 149.22Z" fill="#F5F5F5"/>
<path d="M115.832 141.544C115.832 142.291 115.61 143.022 115.195 143.643C114.78 144.264 114.19 144.748 113.499 145.033C112.809 145.319 112.049 145.393 111.316 145.247C110.584 145.1 109.911 144.74 109.383 144.211C108.855 143.682 108.496 143.009 108.352 142.276C108.207 141.543 108.283 140.783 108.57 140.093C108.857 139.404 109.342 138.814 109.964 138.4C110.586 137.987 111.317 137.766 112.064 137.768C112.56 137.768 113.05 137.866 113.508 138.056C113.966 138.245 114.381 138.524 114.731 138.874C115.081 139.225 115.359 139.642 115.548 140.1C115.736 140.558 115.833 141.048 115.832 141.544Z" fill="#E6E6E6"/>
<path d="M72.976 116.424L73.8 121.928L68.072 123.856L73.8 126.864L79.512 124.856L78.512 119.432L72.976 116.424Z" fill="#E6E6E6"/>
<path d="M112.064 142.344C111.936 142.342 111.811 142.312 111.696 142.256L70.712 121.248C70.5296 121.148 70.3934 120.981 70.3323 120.782C70.2712 120.583 70.29 120.368 70.3847 120.183C70.4795 119.997 70.6426 119.856 70.8396 119.789C71.0367 119.722 71.252 119.735 71.44 119.824L112.424 140.8C112.612 140.896 112.755 141.062 112.821 141.263C112.887 141.464 112.871 141.683 112.776 141.872C112.714 142.01 112.614 142.127 112.488 142.211C112.362 142.295 112.215 142.341 112.064 142.344Z" fill="#E0E0E0"/>
<path d="M168.464 107.328C168.46 106.227 168.715 105.141 169.207 104.157C169.7 103.172 170.417 102.317 171.3 101.66C172.183 101.003 173.208 100.563 174.293 100.375C175.377 100.187 176.491 100.255 177.544 100.576C177.231 98.4533 177.38 96.2882 177.979 94.2281C178.579 92.168 179.616 90.2613 181.019 88.6381C182.422 87.0148 184.158 85.7131 186.11 84.8216C188.062 83.9301 190.182 83.4698 192.328 83.472C193.249 83.4717 194.167 83.5574 195.072 83.728C196.544 81.3084 198.764 79.4333 201.395 78.3854C204.026 77.3375 206.927 77.1737 209.66 77.9187C212.392 78.6637 214.808 80.2771 216.544 82.5155C218.279 84.7539 219.239 87.496 219.28 90.328H219.504C222.695 90.328 225.755 91.5957 228.012 93.8521C230.268 96.1085 231.536 99.1689 231.536 102.36C231.536 105.551 230.268 108.611 228.012 110.868C225.755 113.124 222.695 114.392 219.504 114.392H175.312C173.475 114.34 171.731 113.572 170.451 112.253C169.172 110.933 168.459 109.166 168.464 107.328Z" fill="#F0F0F0"/>
<path d="M293.976 103.456C293.976 102.554 294.334 101.689 294.972 101.052C295.609 100.414 296.474 100.056 297.376 100.056C297.706 100.059 298.035 100.107 298.352 100.2C298.301 99.8556 298.274 99.5081 298.272 99.16C298.271 98.1017 298.504 97.0562 298.954 96.0981C299.403 95.14 300.059 94.2928 300.873 93.6168C301.687 92.9407 302.64 92.4525 303.665 92.1869C304.689 91.9213 305.76 91.8848 306.8 92.08C307.513 90.9166 308.584 90.0163 309.853 89.5144C311.121 89.0126 312.519 88.9364 313.834 89.2973C315.15 89.6583 316.313 90.4369 317.148 91.5158C317.983 92.5948 318.445 93.9158 318.464 95.28H318.568C320.106 95.28 321.581 95.8911 322.669 96.9788C323.757 98.0665 324.368 99.5417 324.368 101.08C324.368 102.618 323.757 104.094 322.669 105.181C321.581 106.269 320.106 106.88 318.568 106.88H297.28C296.39 106.857 295.545 106.485 294.927 105.844C294.309 105.204 293.967 104.346 293.976 103.456Z" fill="#F0F0F0"/>
<path d="M75.776 107.688C75.776 107.388 75.8352 107.091 75.9503 106.814C76.0654 106.536 76.234 106.285 76.4466 106.073C76.6592 105.861 76.9115 105.693 77.189 105.579C77.4665 105.465 77.7639 105.407 78.064 105.408C78.2862 105.407 78.5073 105.44 78.72 105.504C78.6851 105.271 78.6664 105.036 78.664 104.8C78.6744 103.53 79.1835 102.315 80.0814 101.417C80.9793 100.52 82.1942 100.01 83.464 100C83.7647 100.001 84.0647 100.031 84.36 100.088C84.8348 99.3014 85.5531 98.6911 86.4061 98.3495C87.259 98.008 88.2001 97.9539 89.0866 98.1954C89.9731 98.4369 90.7566 98.9609 91.3185 99.6879C91.8803 100.415 92.1898 101.305 92.2 102.224H92.272C93.2758 102.269 94.2234 102.7 94.9176 103.427C95.6119 104.153 95.9993 105.119 95.9993 106.124C95.9993 107.129 95.6119 108.095 94.9176 108.821C94.2234 109.548 93.2758 109.979 92.272 110.024H78C77.7005 110.017 77.4055 109.951 77.1316 109.829C76.8578 109.708 76.6105 109.534 76.404 109.317C76.1974 109.1 76.0357 108.844 75.9279 108.565C75.8202 108.285 75.7685 107.987 75.776 107.688Z" fill="#F0F0F0"/>
<path d="M200 342.048C285.666 342.048 355.112 337.993 355.112 332.992C355.112 327.99 285.666 323.936 200 323.936C114.334 323.936 44.888 327.99 44.888 332.992C44.888 337.993 114.334 342.048 200 342.048Z" fill="#F5F5F5"/>
<path d="M110.704 180.448L116.192 177.312C116.192 177.312 118.304 174.056 118.936 173.904C119.568 173.752 126.528 173.904 126.528 173.904C126.528 173.904 125.48 178.416 125.368 179.304C125.256 180.192 118.616 179.304 118.616 179.304L113.24 182.504L110.704 180.448Z" fill="#EBB376"/>
<path d="M59.592 326.4L53.848 325.256C53.7455 325.255 53.6458 325.29 53.5658 325.354C53.4857 325.418 53.43 325.508 53.408 325.608L51.864 331.352C51.8315 331.548 51.8733 331.75 51.9813 331.917C52.0893 332.084 52.2557 332.205 52.448 332.256H52.616C54.648 332.256 56.128 332.096 58.672 332.096C60.272 332.096 64.976 332.264 67.144 332.264C69.312 332.264 69.6 330.12 68.744 329.928C64.744 329.056 61.768 327.856 60.496 326.728C60.2497 326.504 59.9248 326.386 59.592 326.4Z" fill="#263238"/>
<path d="M129.888 326.208H123.616C123.513 326.206 123.413 326.24 123.332 326.304C123.252 326.369 123.197 326.459 123.176 326.56L122.152 331.2C122.122 331.396 122.166 331.597 122.275 331.762C122.385 331.928 122.552 332.047 122.744 332.096H122.912C124.944 332.056 126.416 331.936 128.968 331.936C130.568 331.936 135.272 332.096 137.44 332.096C139.608 332.096 139.888 329.96 139 329.76C135 328.896 132.024 327.688 130.752 326.56C130.639 326.446 130.504 326.356 130.356 326.296C130.207 326.236 130.048 326.206 129.888 326.208Z" fill="#263238"/>
<path d="M70.664 220.536L97.224 213.8C103.248 226.952 125.352 280.952 130.712 325.88L121.72 328.16C121.72 328.16 105.8 261.904 92.448 242.56C92.448 242.56 91.736 271.968 90.288 276.248C89.096 279.768 61.76 326.864 61.76 326.864L52.88 325.864C52.88 325.864 75.2 277.8 76.512 271.808C77.44 267.728 73.376 237.76 73.376 237.76C72.664 235.088 71.592 224.024 71.592 224.024C71.592 224.024 70.792 221.088 70.664 220.536Z" fill="#009F61"/>
<path opacity="0.2" d="M92.456 242.576C94.7099 245.986 96.6766 249.577 98.336 253.312C96.496 242.96 90.792 232.936 90.792 232.936L92.456 242.576Z" fill="black"/>
<path opacity="0.3" d="M70.664 220.536L97.224 213.8C103.248 226.952 125.352 280.952 130.712 325.88L121.72 328.16C121.72 328.16 105.8 261.904 92.448 242.56C92.448 242.56 91.736 271.968 90.288 276.248C89.096 279.768 61.76 326.864 61.76 326.864L52.88 325.864C52.88 325.864 75.2 277.8 76.512 271.808C77.44 267.728 73.376 237.76 73.376 237.76C72.664 235.088 71.592 224.024 71.592 224.024C71.592 224.024 70.792 221.088 70.664 220.536Z" fill="black"/>
<path d="M116.84 180.904C116.84 180.904 104.728 189.08 101.536 189.512C100.264 189.688 97.64 189.256 94.928 188.712C90.816 187.832 86.528 186.6 86.528 186.6L85.992 182.544L85.424 178.208C86.384 177.888 98.912 183.008 100.784 183.808C102.656 184.608 114.76 177.408 114.76 177.408L116.84 180.904Z" fill="#263238"/>
<path d="M79.384 218.664L80.168 221.736L71.592 224.024L70.792 220.84L79.384 218.664Z" fill="black"/>
<path d="M92.912 215.232L93.656 218.144L81.12 221.488L80.336 218.424L92.912 215.232Z" fill="black"/>
<path d="M98.592 216.832L94.6 217.896L93.864 214.992L97.528 214.064L98.592 216.832Z" fill="black"/>
<path d="M86.092 220.163L91.0394 218.909L90.1348 215.342L85.1874 216.596L86.092 220.163Z" fill="white"/>
<path d="M97.52 214.056L70.7841 220.84C69.4801 217.312 68.152 213.76 66.856 210.296C65.904 207.76 64.968 205.272 64.056 202.864C63.8267 202.245 63.5947 201.637 63.36 201.04L62.56 198.912C61.968 197.355 61.3974 195.853 60.848 194.408L59.376 190.56L58.68 188.736L57.36 185.296L85.432 178.176C94.688 194.328 97.52 214.056 97.52 214.056Z" fill="#263238"/>
<path d="M67.552 184.608C70.44 185.992 75.768 183.552 75.768 183.552C75.768 183.552 77.536 181.6 76.48 180.736C74.336 181.016 74.472 180.312 73.696 179.216C73.2523 178.524 72.9479 177.752 72.8 176.944C72.7041 176.498 72.632 176.046 72.584 175.592L64.16 172.568C66.072 175.656 69.04 181.504 67.552 184.608Z" fill="#EBB376"/>
<path opacity="0.2" d="M66.72 175.328C68.24 179.368 71.968 179.488 73.696 179.216C73.2523 178.524 72.9479 177.752 72.8 176.944L66.72 175.328Z" fill="black"/>
<path d="M77.696 160C77.696 160 79.896 166.64 76.72 169.88C73.544 173.12 71.392 160.424 71.392 160.424L77.696 160Z" fill="#263238"/>
<path d="M67.136 177.112C68.0864 178.104 69.3357 178.756 70.6925 178.97C72.0493 179.184 73.4387 178.947 74.648 178.296C76.2336 177.477 77.4467 176.083 78.0401 174.4C78.1201 174.176 78.192 173.936 78.2561 173.696C79.3281 169.224 78.6561 161.84 73.7841 159.856C72.7102 159.413 71.541 159.253 70.3876 159.389C69.2342 159.526 68.135 159.956 67.1945 160.637C66.2539 161.319 65.5034 162.23 65.0143 163.283C64.5252 164.337 64.3137 165.498 64.4 166.656C64.688 171.64 64.624 174.568 67.136 177.112Z" fill="#EBB376"/>
<path d="M71.944 168.072C71.944 168.472 72.152 168.8 72.424 168.8C72.696 168.8 72.896 168.472 72.904 168.072C72.912 167.672 72.688 167.336 72.424 167.336C72.16 167.336 71.944 167.664 71.944 168.072Z" fill="#263238"/>
<path d="M76.52 168.072C76.52 168.48 76.736 168.808 77 168.808C77.264 168.808 77.472 168.472 77.48 168.072C77.488 167.672 77.256 167.344 77 167.344C76.744 167.344 76.52 167.688 76.52 168.072Z" fill="#263238"/>
<path d="M75.064 168.272C75.5423 169.511 76.1913 170.677 76.992 171.736C76.7143 171.935 76.3961 172.07 76.0602 172.133C75.7242 172.195 75.3786 172.182 75.048 172.096L75.064 168.272Z" fill="#D58745"/>
<path d="M78.192 166.2C78.1536 166.22 78.1111 166.23 78.068 166.23C78.0249 166.23 77.9824 166.22 77.944 166.2C77.7074 166.018 77.4314 165.894 77.1382 165.839C76.8449 165.783 76.5428 165.797 76.256 165.88C76.1977 165.902 76.1329 165.9 76.0759 165.875C76.0188 165.849 75.9743 165.802 75.952 165.744C75.9297 165.686 75.9315 165.621 75.9571 165.564C75.9826 165.507 76.0297 165.462 76.088 165.44C76.4468 165.327 76.8276 165.302 77.1981 165.367C77.5686 165.433 77.9178 165.587 78.216 165.816C78.2422 165.833 78.2647 165.855 78.2822 165.881C78.2997 165.907 78.3118 165.936 78.3178 165.966C78.3237 165.997 78.3235 166.029 78.317 166.059C78.3105 166.09 78.2979 166.118 78.28 166.144C78.2531 166.166 78.2236 166.185 78.192 166.2Z" fill="#263238"/>
<path d="M71.0401 166.256C70.9943 166.25 70.9505 166.234 70.912 166.208C70.8681 166.163 70.8434 166.103 70.8434 166.04C70.8434 165.977 70.8681 165.917 70.912 165.872C71.1917 165.616 71.529 165.431 71.8953 165.334C72.2617 165.236 72.6462 165.229 73.016 165.312C73.0744 165.331 73.1235 165.371 73.1533 165.424C73.183 165.478 73.1912 165.541 73.176 165.6C73.1575 165.66 73.1164 165.712 73.0614 165.743C73.0064 165.774 72.9415 165.783 72.88 165.768C72.5882 165.709 72.2867 165.721 72.0002 165.802C71.7137 165.882 71.4504 166.03 71.232 166.232C71.2035 166.249 71.1716 166.26 71.1386 166.264C71.1055 166.268 71.072 166.266 71.0401 166.256Z" fill="#263238"/>
<path d="M68.048 160.48L68.528 161.4C66.928 162.016 67.328 163.904 67.728 164.744C68.528 166.552 67.608 169.456 66.256 170.664C66.256 170.664 66.168 169.864 65.504 170.088C64.84 170.312 65.224 174.456 66.632 176.376C66.632 176.376 64.56 174.672 63.232 170.368C62.008 166.368 61.72 163.032 62.48 161.432L68.048 160.48Z" fill="#263238"/>
<path d="M62.224 170.752C62.4962 171.311 62.8758 171.81 63.3411 172.222C63.8065 172.634 64.3484 172.95 64.936 173.152C66.536 173.68 67.336 172.296 67.016 170.752C66.68 169.4 65.472 167.44 63.816 167.592C63.4668 167.631 63.1329 167.756 62.8444 167.957C62.556 168.158 62.3221 168.427 62.164 168.741C62.0059 169.055 61.9286 169.403 61.9391 169.754C61.9496 170.105 62.0475 170.448 62.224 170.752Z" fill="#EBB376"/>
<path d="M68 179.112C70.352 180.76 74.936 181.296 77.184 178.312C79.432 175.328 78.712 170.536 78.712 170.536C78.4539 171.606 77.9621 172.606 77.272 173.464C76 171.928 73.84 172.8 73.84 172.8C73.3849 172.208 72.7318 171.799 72 171.648C70.952 171.544 68 171.72 68 171.72C67.056 171.12 67.016 168.448 67.016 168.448L66.44 168.928C66.44 168.928 65.64 177.456 68 179.112Z" fill="#263238"/>
<path d="M74.288 162.176C74.288 162.176 79.888 159.456 79.224 156.736C78.56 154.016 76.928 157.12 76.928 157.12C76.928 157.12 77.68 155.056 76.208 154.72C74.736 154.384 75.2 155.704 74.4 156.496C73.6 157.288 65.84 156.136 63.336 157.688C60.832 159.24 62.744 164.608 62.744 164.608C64.2228 163.123 66.1028 162.102 68.1533 161.67C70.2038 161.238 72.3359 161.414 74.288 162.176Z" fill="#263238"/>
<path opacity="0.2" d="M68 179.112C70.352 180.76 74.936 181.296 77.184 178.312C79.432 175.328 78.712 170.536 78.712 170.536C78.4539 171.606 77.9621 172.606 77.272 173.464C76 171.928 73.84 172.8 73.84 172.8C73.3849 172.208 72.7318 171.799 72 171.648C70.952 171.544 68 171.72 68 171.72C67.056 171.12 67.016 168.448 67.016 168.448L66.44 168.928C66.44 168.928 65.64 177.456 68 179.112Z" fill="white"/>
<path d="M74.08 174.32C73.6495 174.896 73.2618 175.503 72.92 176.136L72.56 176C70.96 175.416 70.384 174.616 70.256 173.896C70.2042 173.547 70.2344 173.191 70.344 172.856C70.4023 172.662 70.4857 172.476 70.592 172.304C71.4335 173.107 72.4374 173.721 73.536 174.104C73.864 174.248 74.08 174.32 74.08 174.32Z" fill="#263238"/>
<path d="M73.536 174.112L73.176 174.64C71.656 174.088 70.656 173.496 70.344 172.864C70.4023 172.67 70.4857 172.484 70.592 172.312C71.4335 173.115 72.4374 173.729 73.536 174.112Z" fill="white"/>
<path d="M72.56 176C70.96 175.416 70.384 174.616 70.256 173.896C70.867 174.134 71.4326 174.475 71.928 174.904C72.2487 175.194 72.4698 175.577 72.56 176Z" fill="#DE5753"/>
<path d="M76.824 183.56L76.352 187.704L84.992 206.112L84.136 208.552L81.312 207.248L75.152 188.472L70.624 185.408L73.92 183.6L76.824 183.56Z" fill="#009F61"/>
<path d="M67.744 180.728L73.464 183.088L73.696 179.216L77.912 180.256L78.272 186.152L74.216 184.496L72.52 188.272L65.312 183.456L67.744 180.728Z" fill="#263238"/>
<path opacity="0.2" d="M67.744 180.728L73.464 183.088L73.696 179.216L77.912 180.256L78.272 186.152L74.216 184.496L72.52 188.272L65.312 183.456L67.744 180.728Z" fill="white"/>
<path opacity="0.2" d="M62.552 198.912C61.96 197.355 61.3893 195.853 60.84 194.408L59.368 190.56L58.672 188.736C59.472 188.344 61.512 188.576 62.08 189.536C64.16 193.168 62.552 198.912 62.552 198.912Z" fill="black"/>
<path opacity="0.2" d="M72.576 202.976C72.2343 204.548 71.5425 206.022 70.5522 207.289C69.5619 208.557 68.2984 209.584 66.856 210.296C65.904 207.76 64.968 205.272 64.056 202.864C63.8267 202.245 63.5947 201.637 63.36 201.04L62.56 198.912L71.824 200.088L72.576 202.976Z" fill="black"/>
<path opacity="0.2" d="M94.928 188.68C90.816 187.8 86.528 186.568 86.528 186.568L85.992 182.512C85.992 182.512 93.552 183.32 94.928 188.68Z" fill="black"/>
<path d="M57.352 283.2C57.1012 283.208 56.8541 283.138 56.6454 282.999C56.4368 282.859 56.2771 282.658 56.1888 282.423C56.1004 282.188 56.088 281.931 56.1532 281.689C56.2183 281.447 56.3578 281.231 56.552 281.072C69.904 270.112 69.648 252.936 69.4 236.32C69.208 223.792 69.032 211.952 74.928 203.904C83.2 192.592 116.472 174.648 121.984 174.136C125.928 173.744 246.224 140.312 309.288 122.688C309.595 122.602 309.923 122.641 310.2 122.797C310.478 122.954 310.682 123.213 310.768 123.52C310.854 123.827 310.815 124.155 310.659 124.432C310.502 124.71 310.243 124.914 309.936 125C302.472 127.088 127.152 176.072 122.208 176.528C117.464 176.968 84.528 194.84 76.864 205.328C71.448 212.728 71.616 224.176 71.8 236.288C72.04 252.672 72.32 271.248 58.072 282.936C57.8679 283.101 57.6147 283.194 57.352 283.2Z" fill="#263238"/>
<path opacity="0.4" d="M309.976 124.992L293.528 129.6C248.288 142.224 126.328 176.16 122.248 176.536C117.504 176.976 84.568 194.848 76.904 205.336C71.488 212.736 71.656 224.184 71.84 236.296C72.08 252.68 72.36 271.256 58.112 282.944C57.8879 283.13 57.6031 283.227 57.312 283.216C57.0612 283.224 56.8141 283.154 56.6055 283.015C56.3968 282.875 56.2371 282.674 56.1488 282.439C56.0605 282.204 56.048 281.947 56.1132 281.705C56.1783 281.463 56.3178 281.247 56.512 281.088C69.864 270.128 69.608 252.952 69.36 236.336C69.168 223.808 68.992 211.968 74.888 203.92C83.16 192.608 116.432 174.664 121.944 174.152C125.656 173.784 232.232 144.2 297.368 126.024L309.248 122.704C309.555 122.618 309.883 122.657 310.16 122.813C310.438 122.97 310.642 123.229 310.728 123.536C310.814 123.843 310.775 124.171 310.619 124.448C310.463 124.726 310.203 124.93 309.896 125.016L309.976 124.992Z" fill="white"/>
<path opacity="0.2" d="M309.976 124.992L293.528 129.6C294.681 128.247 295.998 127.044 297.448 126.016L309.328 122.696C309.635 122.61 309.963 122.649 310.24 122.805C310.518 122.962 310.722 123.221 310.808 123.528C310.894 123.835 310.855 124.163 310.699 124.44C310.543 124.718 310.283 124.922 309.976 125.008V124.992Z" fill="black"/>
<path d="M65.528 200.64L71.816 200.088C71.816 200.088 75.104 198.008 75.736 198.144C76.368 198.28 82.632 201.344 82.632 201.344C82.632 201.344 79.792 205 79.32 205.76C78.848 206.52 73.192 202.936 73.192 202.936L66.96 203.6L65.528 200.64Z" fill="#EBB376"/>
<path d="M57.352 185.296C54.496 187.336 47.056 203.968 47.848 206.536C48.64 209.104 71.792 204.04 71.792 204.04L70.768 199.712H58.312L61.272 195.04C61.272 195.04 63.096 193.264 61.976 189.136C61.168 186.16 57.352 185.296 57.352 185.296Z" fill="#263238"/>
<path d="M298.568 186.968L293.824 184.72C293.824 184.72 291.424 180.128 290.72 179.392C290.016 178.656 286.616 181.512 286.616 182.008C286.616 182.504 289.08 187.144 289.72 187.424C290.672 187.564 291.64 187.564 292.592 187.424L297.104 189.608L298.568 186.968Z" fill="#9F5B53"/>
<path d="M309.64 158.512L310.592 155.112C310.592 155.112 312.096 150.68 311.936 149.656C311.642 148.444 311.262 147.254 310.8 146.096C310.8 146.096 306.64 151.16 306.64 151.792C306.64 152.424 308.288 154.72 308.288 154.72L307.488 158.512H309.64Z" fill="#9F5B53"/>
<path d="M313.296 183.84C313.296 183.84 309.712 179.384 308.656 175.24C307.6 171.096 310.792 157.64 310.792 157.64L307.424 156.744C307.424 156.744 303.424 170.512 303.288 175.536C303.152 180.56 310.624 195.304 310.624 195.304L313.296 183.84Z" fill="#009F61"/>
<path opacity="0.2" d="M311.128 193.088L310.616 195.272C310.616 195.272 308.04 190.192 305.936 184.976C308.125 186.549 309.776 188.759 310.664 191.304C310.867 191.885 311.022 192.482 311.128 193.088Z" fill="black"/>
<path d="M332.272 193.6C332.227 194.53 332.115 195.455 331.936 196.368C331.568 198.368 330.944 200.728 330.232 203.328C329.848 204.696 329.432 206.16 329.064 207.704C327.28 214.64 326.312 217.4 324.992 226.256L299.672 220.248C301.04 212.667 303.127 205.234 305.904 198.048C306.64 196.136 307.504 194.224 308.376 192.336C309.774 189.376 311.42 186.539 313.296 183.856C313.296 183.856 317.392 187.6 330.256 189.848C331.816 190.088 332.352 191.448 332.272 193.6Z" fill="#009F61"/>
<path opacity="0.2" d="M329.088 190.712C329.088 191.512 332.12 195.32 331.936 196.312C331.592 196.544 331.184 196.8 330.72 197.112C322.152 202.096 310.912 199.568 305.92 198.024C306.656 196.112 308.32 192.6 309.184 190.712L315.192 192.048C315.192 192.048 325.016 189.808 329.088 190.712Z" fill="black"/>
<path d="M318.792 185.368C319.712 185.016 327.264 186.896 326.704 187.056C326.144 187.216 323.328 195.856 319.384 195.208C315.44 194.56 315.512 186.616 318.792 185.368Z" fill="#009F61"/>
<path d="M284.6 326.928L279.848 327.96L277.072 317.032L281.832 316L284.6 326.928Z" fill="#9F5B53"/>
<path d="M278.664 325.976H284.576C284.672 325.976 284.766 326.01 284.84 326.071C284.915 326.132 284.965 326.217 284.984 326.312L285.944 330.64C285.965 330.733 285.967 330.828 285.951 330.922C285.935 331.015 285.9 331.104 285.848 331.184C285.797 331.264 285.73 331.333 285.652 331.386C285.573 331.44 285.485 331.477 285.392 331.496H285.232C283.32 331.496 281.928 331.344 279.528 331.344C278.048 331.344 273.584 331.496 271.528 331.496C269.472 331.496 269.224 329.48 270.056 329.296C273.808 328.496 276.632 327.344 277.832 326.272C277.944 326.17 278.075 326.091 278.218 326.04C278.361 325.99 278.513 325.968 278.664 325.976Z" fill="#263238"/>
<path d="M277.056 326.832C276.725 326.857 276.395 326.769 276.12 326.584C276.03 326.511 275.961 326.415 275.919 326.308C275.877 326.2 275.864 326.083 275.88 325.968C275.876 325.9 275.892 325.833 275.927 325.775C275.961 325.717 276.011 325.67 276.072 325.64C276.616 325.36 278.184 326.328 278.36 326.44C278.38 326.45 278.397 326.466 278.407 326.487C278.417 326.507 278.42 326.53 278.416 326.552C278.413 326.575 278.403 326.597 278.387 326.614C278.372 326.631 278.351 326.643 278.328 326.648C277.912 326.757 277.486 326.818 277.056 326.832ZM276.328 325.824C276.281 325.808 276.231 325.808 276.184 325.824C276.184 325.824 276.112 325.864 276.104 325.96C276.096 326.036 276.106 326.113 276.134 326.184C276.162 326.255 276.206 326.318 276.264 326.368C276.808 326.617 277.426 326.648 277.992 326.456C277.483 326.14 276.918 325.925 276.328 325.824Z" fill="#009F61"/>
<path d="M278.296 326.656H278.24C277.744 326.384 276.768 325.312 276.864 324.8C276.882 324.714 276.93 324.637 276.998 324.581C277.067 324.526 277.152 324.496 277.24 324.496C277.327 324.484 277.416 324.492 277.501 324.518C277.585 324.544 277.663 324.589 277.728 324.648C278.288 325.104 278.408 326.504 278.416 326.568C278.417 326.589 278.413 326.61 278.403 326.628C278.393 326.646 278.378 326.662 278.36 326.672C278.349 326.675 278.337 326.676 278.326 326.673C278.315 326.67 278.304 326.664 278.296 326.656ZM277.32 324.68H277.264C277.112 324.68 277.104 324.768 277.096 324.8C277.032 325.12 277.656 325.928 278.152 326.304C278.125 325.758 277.932 325.234 277.6 324.8C277.564 324.762 277.521 324.732 277.472 324.711C277.424 324.69 277.372 324.68 277.32 324.68Z" fill="#009F61"/>
<path d="M325.2 226.92C325.2 226.92 321.096 246.488 311.496 251.72C310.394 252.34 309.187 252.749 307.936 252.928C307.936 252.928 298.2 256.928 289.784 260.712C284.664 263.024 280.032 265.28 278.376 266.544C273.992 269.88 284.728 321.96 284.728 321.96L277.432 322.04C277.432 322.04 262.08 275.928 264.632 263.824C267.184 251.72 294.736 233.192 294.736 233.192L298.976 221.528L325.2 226.92Z" fill="#263238"/>
<path opacity="0.2" d="M311.496 251.744C310.394 252.364 309.187 252.773 307.936 252.952C307.936 252.952 298.2 256.952 289.784 260.736C295.2 250.776 304.856 244.304 304.856 244.304L311.496 251.744Z" fill="black"/>
<path d="M345.768 326.928L341.016 327.96L338.24 317.032L343 316L345.768 326.928Z" fill="#9F5B53"/>
<path d="M339.832 325.976H345.744C345.84 325.976 345.934 326.01 346.008 326.071C346.083 326.132 346.133 326.217 346.152 326.312L347.112 330.64C347.133 330.733 347.135 330.828 347.119 330.922C347.103 331.015 347.068 331.104 347.016 331.184C346.965 331.264 346.898 331.333 346.82 331.386C346.741 331.44 346.653 331.477 346.56 331.496H346.4C344.488 331.496 343.096 331.344 340.696 331.344C339.216 331.344 334.752 331.496 332.696 331.496C330.64 331.496 330.392 329.48 331.224 329.296C334.976 328.496 337.8 327.344 339 326.272C339.112 326.17 339.243 326.091 339.386 326.04C339.529 325.99 339.681 325.968 339.832 325.976Z" fill="#263238"/>
<path d="M338.224 326.832C337.893 326.857 337.563 326.769 337.288 326.584C337.198 326.511 337.129 326.415 337.087 326.308C337.045 326.2 337.032 326.083 337.048 325.968C337.044 325.9 337.06 325.833 337.095 325.775C337.129 325.717 337.179 325.67 337.24 325.64C337.784 325.36 339.352 326.328 339.528 326.44C339.548 326.45 339.565 326.466 339.575 326.487C339.585 326.507 339.588 326.53 339.584 326.552C339.581 326.575 339.571 326.597 339.555 326.614C339.54 326.631 339.519 326.643 339.496 326.648C339.08 326.757 338.654 326.818 338.224 326.832ZM337.496 325.824C337.449 325.808 337.399 325.808 337.352 325.824C337.352 325.824 337.28 325.864 337.272 325.96C337.264 326.036 337.274 326.113 337.302 326.184C337.33 326.255 337.374 326.318 337.432 326.368C337.976 326.617 338.594 326.648 339.16 326.456C338.651 326.14 338.086 325.925 337.496 325.824Z" fill="#009F61"/>
<path d="M339.464 326.656H339.408C338.912 326.384 337.936 325.312 338.032 324.8C338.05 324.714 338.098 324.637 338.166 324.581C338.235 324.526 338.32 324.496 338.408 324.496C338.496 324.484 338.584 324.492 338.669 324.518C338.753 324.544 338.831 324.589 338.896 324.648C339.456 325.104 339.576 326.504 339.584 326.568C339.585 326.589 339.581 326.61 339.571 326.628C339.561 326.646 339.546 326.662 339.528 326.672C339.517 326.675 339.505 326.676 339.494 326.673C339.483 326.67 339.472 326.664 339.464 326.656ZM338.488 324.68H338.4C338.248 324.68 338.24 324.768 338.232 324.8C338.168 325.12 338.792 325.928 339.288 326.304C339.257 325.75 339.056 325.219 338.712 324.784C338.651 324.726 338.572 324.689 338.488 324.68Z" fill="#009F61"/>
<path d="M326.84 189.512C325.648 190.312 320.152 190.008 320.152 190.008L317.6 192.8L317.352 188.184C317.352 188.184 315.632 187.472 316.104 186.976C316.702 187.021 317.303 186.945 317.872 186.754C318.441 186.563 318.966 186.261 319.416 185.864C320.528 184.776 320.744 183.024 320.728 181.288C320.728 181.288 320.728 181.24 320.728 181.224L325.424 178.824L328.672 177.152C327.144 180.448 324.96 186.632 326.84 189.512Z" fill="#9F5B53"/>
<path opacity="0.2" d="M326.976 179.92C325.424 183.848 321.376 185.6 319.384 185.856C320.496 184.768 320.712 183.016 320.696 181.28C320.7 181.256 320.7 181.232 320.696 181.208L325.392 178.808C325.4 179.448 327.2 179.32 326.976 179.92Z" fill="black"/>
<path d="M329.96 179.76C329.96 179.76 333.008 181.36 334.024 179.448C335.04 177.536 333.592 177.424 335.088 176.736C336.584 176.048 338.712 175.568 338.224 174.12C337.736 172.672 336.224 172.52 337.904 170.92C339.584 169.32 339.952 167.064 337.44 166.624C334.928 166.184 335.888 164.224 335.76 163.424C335.632 162.624 334.224 162.064 332.696 162.384C331.168 162.704 330.528 160.44 329.584 159.736C328.64 159.032 327.336 159.896 326.992 160.848C326.648 161.8 325.744 160.536 324.4 160.376C323.056 160.216 323.368 161.632 322.952 162.952C322.536 164.272 321.712 163.416 320.752 164.504C319.792 165.592 319.704 173.016 329.96 179.76Z" fill="#263238"/>
<path d="M331.288 175.2C328.992 178.8 327.688 181.176 325.112 182.344C324.765 182.504 324.407 182.638 324.04 182.744C319.032 184.216 314.904 179.392 316.224 174.616C316.475 173.754 316.796 172.914 317.184 172.104C318.976 168.352 322.424 164.512 326.544 165.016C327.404 165.114 328.237 165.381 328.994 165.802C329.751 166.222 330.417 166.788 330.955 167.467C331.493 168.145 331.892 168.923 332.129 169.756C332.366 170.589 332.436 171.46 332.336 172.32C332.215 173.348 331.856 174.334 331.288 175.2Z" fill="#9F5B53"/>
<path d="M324.24 172.8C324.072 173.16 323.712 173.32 323.488 173.2C323.264 173.08 323.24 172.688 323.424 172.352C323.608 172.016 323.96 171.832 324.176 171.952C324.392 172.072 324.432 172.472 324.24 172.8Z" fill="#263238"/>
<path d="M320.36 170.664C320.31 170.814 320.204 170.94 320.064 171.013C319.923 171.086 319.76 171.102 319.608 171.056C319.392 170.928 319.36 170.552 319.552 170.208C319.744 169.864 320.08 169.688 320.304 169.816C320.528 169.944 320.544 170.336 320.36 170.664Z" fill="#263238"/>
<path d="M321.504 171.52C320.51 172.337 319.409 173.015 318.232 173.536C318.373 173.835 318.577 174.1 318.832 174.312C319.086 174.523 319.384 174.676 319.704 174.76L321.504 171.52Z" fill="#892B29"/>
<path d="M326.56 171.904C326.518 171.91 326.476 171.906 326.436 171.89C326.397 171.875 326.362 171.849 326.336 171.816C326.174 171.577 325.958 171.38 325.704 171.241C325.451 171.102 325.169 171.025 324.88 171.016C324.846 171.022 324.812 171.021 324.779 171.013C324.746 171.004 324.715 170.988 324.689 170.967C324.663 170.945 324.642 170.918 324.627 170.887C324.613 170.856 324.605 170.822 324.605 170.788C324.605 170.754 324.613 170.72 324.627 170.689C324.642 170.658 324.663 170.631 324.689 170.609C324.715 170.588 324.746 170.572 324.779 170.563C324.812 170.555 324.846 170.554 324.88 170.56C325.245 170.562 325.603 170.653 325.925 170.825C326.247 170.996 326.522 171.243 326.728 171.544C326.747 171.567 326.761 171.594 326.769 171.623C326.777 171.652 326.78 171.683 326.776 171.712C326.772 171.742 326.763 171.771 326.747 171.797C326.732 171.823 326.712 171.846 326.688 171.864C326.649 171.888 326.605 171.901 326.56 171.904Z" fill="#263238"/>
<path d="M320.64 176.904C321.177 177.079 321.749 177.121 322.306 177.028C322.863 176.934 323.389 176.708 323.84 176.368C323.86 176.345 323.871 176.315 323.871 176.284C323.871 176.253 323.86 176.223 323.84 176.2C323.818 176.178 323.787 176.166 323.756 176.166C323.725 176.166 323.694 176.178 323.672 176.2C323.245 176.507 322.752 176.71 322.233 176.794C321.713 176.877 321.182 176.838 320.68 176.68C320.666 176.674 320.651 176.671 320.635 176.671C320.62 176.671 320.605 176.675 320.591 176.682C320.577 176.689 320.565 176.699 320.556 176.711C320.546 176.723 320.539 176.737 320.536 176.752C320.53 176.766 320.527 176.781 320.527 176.797C320.527 176.812 320.531 176.827 320.538 176.841C320.545 176.855 320.555 176.867 320.567 176.876C320.579 176.886 320.593 176.893 320.608 176.896L320.64 176.904Z" fill="#263238"/>
<path d="M320 167.344C319.988 167.299 319.988 167.252 320 167.208C320.026 167.153 320.072 167.111 320.129 167.09C320.186 167.069 320.249 167.071 320.304 167.096C320.64 167.246 320.934 167.475 321.163 167.763C321.391 168.052 321.546 168.391 321.616 168.752C321.623 168.812 321.606 168.873 321.568 168.921C321.531 168.969 321.476 169 321.416 169.008C321.356 169.015 321.295 168.998 321.247 168.96C321.199 168.923 321.168 168.868 321.16 168.808C321.097 168.526 320.969 168.262 320.785 168.038C320.602 167.815 320.369 167.637 320.104 167.52C320.075 167.499 320.052 167.473 320.034 167.443C320.016 167.413 320.004 167.379 320 167.344Z" fill="#263238"/>
<path d="M323.296 165.352C324.464 165.496 325.04 166.952 325.04 166.952C326.452 167.468 327.817 168.105 329.12 168.856C329.517 169.18 329.816 169.609 329.983 170.093C330.15 170.578 330.178 171.1 330.064 171.6C330.024 171.984 329.08 172.336 329.08 172.336C329.08 172.336 327.352 176.416 326.88 177.544L327.12 181.312C330.295 179.304 332.839 176.439 334.456 173.048C337.184 167.368 325.8 162.368 325.8 162.368L323.296 165.352Z" fill="#263238"/>
<path d="M330.6 180.896C329.536 181.479 328.285 181.617 327.12 181.28C325.576 180.816 325.664 179.232 326.808 178.216C327.832 177.336 329.888 176.464 331.08 177.488C331.341 177.711 331.541 177.996 331.663 178.317C331.784 178.638 331.823 178.984 331.775 179.324C331.727 179.663 331.595 179.986 331.389 180.26C331.184 180.535 330.912 180.754 330.6 180.896Z" fill="#9F5B53"/>
<path d="M326.704 187.056L320.344 188.888L317.6 192.608L318.344 188.056C318.344 188.056 317.664 187.008 318.792 185.368L314.92 186.168L312.584 190.072L317.128 189.008L317.44 193.544L320.088 190.424L322.256 193.848L328.704 189.76L326.704 187.056Z" fill="#009F61"/>
<path opacity="0.2" d="M326.704 187.056L320.344 188.888L317.6 192.608L318.344 188.056C318.344 188.056 317.664 187.008 318.792 185.368L314.92 186.168L312.584 190.072L317.128 189.008L317.44 193.544L320.088 190.424L322.256 193.848L328.704 189.76L326.704 187.056Z" fill="black"/>
<path d="M300.008 217.6L299.016 221.552L325.192 226.92L325.584 222.528L300.008 217.6Z" fill="black"/>
<path d="M311.696 219.672C311.488 219.376 305.664 218.12 305.112 218.536C305.112 218.536 303.984 222.432 304.176 222.84C304.368 223.248 310.032 224.04 310.576 224.152C311.12 224.264 311.904 220 311.696 219.672ZM310.096 223.672C309.664 223.584 305.008 222.936 304.848 222.6C304.688 222.264 305.648 219.064 305.648 219.064C306.104 218.72 310.888 219.752 311.056 219.992C311.224 220.232 310.528 223.72 310.096 223.632V223.672Z" fill="white"/>
<path d="M310.32 221L309.16 220.76C309.054 220.74 308.945 220.76 308.853 220.816C308.761 220.872 308.694 220.961 308.664 221.064C308.647 221.122 308.643 221.183 308.651 221.242C308.659 221.302 308.68 221.359 308.712 221.41C308.743 221.462 308.785 221.506 308.835 221.54C308.885 221.574 308.941 221.597 309 221.608L310.16 221.832C310.272 221.854 310.389 221.831 310.484 221.767C310.58 221.703 310.646 221.604 310.668 221.492C310.69 221.38 310.667 221.263 310.603 221.168C310.539 221.072 310.44 221.006 310.328 220.984L310.32 221Z" fill="white"/>
<path d="M325.192 226.92C325.192 226.92 325.696 256.52 324.864 265.16C324.032 273.8 345.6 321.088 345.6 321.088H338.616C338.616 321.088 317.456 286.464 312.608 275.808C307.76 265.152 304.176 239.728 304.176 239.728L325.192 226.92Z" fill="#263238"/>
<path d="M332.36 191.52C331.28 189.072 314.696 192.696 313.2 192.272C311.704 191.848 296.136 185.328 296.136 185.328L294.784 188.8C294.784 188.8 308.744 196.8 311.8 198.064C314.856 199.328 327.072 198.72 330.2 197.368C330.735 197.137 331.218 196.8 331.619 196.377C332.02 195.954 332.331 195.454 332.533 194.907C332.735 194.36 332.824 193.778 332.794 193.196C332.765 192.613 332.617 192.043 332.36 191.52Z" fill="#009F61"/>
<path d="M329.424 127.944L324.4 95.944L297.936 114.656L306.736 118.384C298.24 137.856 270.68 194.904 223.256 236.968C162.704 290.688 77.952 317.12 77.104 317.376L81.792 332.68C85.392 331.576 170.656 305.016 233.904 248.912C284.304 204.208 312.64 145.248 321.536 124.608L329.424 127.944Z" fill="#009F61"/>
<path opacity="0.4" d="M324.624 122.344L324.4 95.944L297.936 114.656L306.736 118.384C298.24 137.856 270.68 194.904 223.256 236.968C162.704 290.688 77.952 317.12 77.104 317.376L78.592 327.08C82.192 325.976 167.456 301.816 230.704 245.712C281.104 201.008 307.84 141.248 316.736 120.608L324.624 122.344Z" fill="white"/>
<path d="M320 129.296C319.875 129.297 319.751 129.278 319.632 129.24L304.264 124.272C304.106 124.231 303.957 124.158 303.828 124.058C303.699 123.957 303.592 123.832 303.513 123.688C303.434 123.545 303.386 123.387 303.37 123.224C303.355 123.062 303.373 122.897 303.423 122.742C303.473 122.586 303.555 122.442 303.662 122.319C303.77 122.196 303.902 122.097 304.05 122.027C304.197 121.956 304.358 121.917 304.521 121.911C304.685 121.905 304.848 121.933 305 121.992L320.368 126.952C320.642 127.039 320.875 127.22 321.026 127.464C321.177 127.709 321.236 127.999 321.191 128.282C321.147 128.566 321.002 128.824 320.784 129.01C320.565 129.196 320.287 129.297 320 129.296Z" fill="#263238"/>
<path opacity="0.4" d="M320 129.296C319.875 129.297 319.751 129.278 319.632 129.24L304.264 124.272C304.106 124.231 303.957 124.158 303.828 124.058C303.699 123.957 303.592 123.832 303.513 123.688C303.434 123.545 303.386 123.387 303.37 123.224C303.355 123.062 303.373 122.897 303.423 122.742C303.473 122.586 303.555 122.442 303.662 122.319C303.77 122.196 303.902 122.097 304.05 122.027C304.197 121.956 304.358 121.917 304.521 121.911C304.685 121.905 304.848 121.933 305 121.992L320.368 126.952C320.642 127.039 320.875 127.22 321.026 127.464C321.177 127.709 321.236 127.999 321.191 128.282C321.147 128.566 321.002 128.824 320.784 129.01C320.565 129.196 320.287 129.297 320 129.296Z" fill="white"/>
<path d="M135.944 279.056C135.626 279.056 135.321 278.93 135.095 278.705C134.87 278.479 134.744 278.174 134.744 277.856C134.744 239.664 145.84 234.656 147.92 234.04L183.2 209.36L183.28 209.312L318.816 128.944C319.089 128.788 319.413 128.746 319.717 128.827C320.021 128.907 320.282 129.104 320.442 129.375C320.603 129.645 320.651 129.968 320.575 130.274C320.5 130.579 320.308 130.843 320.04 131.008L184.568 211.352L149.12 236.152C148.969 236.257 148.797 236.328 148.616 236.36C148.528 236.36 137.144 239.16 137.144 277.88C137.138 278.194 137.009 278.493 136.784 278.713C136.56 278.933 136.258 279.056 135.944 279.056Z" fill="#263238"/>
<path opacity="0.4" d="M135.944 279.056C135.626 279.056 135.321 278.93 135.095 278.705C134.87 278.479 134.744 278.174 134.744 277.856C134.744 239.664 145.84 234.656 147.92 234.04L183.2 209.36L183.28 209.312L318.816 128.944C319.089 128.788 319.413 128.746 319.717 128.827C320.021 128.907 320.282 129.104 320.442 129.375C320.603 129.645 320.651 129.968 320.575 130.274C320.5 130.579 320.308 130.843 320.04 131.008L184.568 211.352L149.12 236.152C148.969 236.257 148.797 236.328 148.616 236.36C148.528 236.36 137.144 239.16 137.144 277.88C137.138 278.194 137.009 278.493 136.784 278.713C136.56 278.933 136.258 279.056 135.944 279.056Z" fill="white"/>
<path d="M145.16 239.424C145.16 239.424 138.992 243.424 134.304 244.632C133.147 245.023 131.905 245.092 130.712 244.832C127.224 243.728 129.296 236.976 131.376 232.712C131.712 232.016 132.048 231.392 132.36 230.864L138.456 234.632C138.456 234.632 134.76 239.904 135.184 240.232C135.608 240.56 141.304 237.384 141.584 237.28C141.864 237.176 145.16 239.424 145.16 239.424Z" fill="#009F61"/>
<path opacity="0.2" d="M145.16 239.424C145.16 239.424 138.992 243.424 134.304 244.632C133.003 240.746 132.023 236.759 131.376 232.712C131.712 232.016 132.048 231.392 132.36 230.864L138.456 234.632C138.456 234.632 134.76 239.904 135.184 240.232C135.608 240.56 141.304 237.384 141.584 237.28C141.864 237.176 145.16 239.424 145.16 239.424Z" fill="black"/>
<path d="M175.2 216.208L178.816 213.008C179.105 212.095 179.503 211.219 180 210.4C180.392 210.072 186.976 209.56 186.976 209.56C186.976 209.56 187.104 213.04 186.584 213.944C186.064 214.848 180.688 215.24 180.688 215.24L177.808 218.016L175.2 216.208Z" fill="#EEC1BB"/>
<path d="M194.464 292.04C193.432 306.888 190.672 327.96 190.672 327.96L187.12 328.76C187.12 328.76 183.84 311.12 184.36 294.752C184.453 291.184 184.79 287.626 185.368 284.104C185.368 284.104 173.064 279.376 164.52 275.144C160.44 273.128 157.216 271.216 156.6 269.984C154.696 266.184 163.352 257.256 163.352 257.256C163.624 257.472 168.848 260.8 174.928 264.744C183 269.976 192.576 276.296 194.128 277.872C195.056 278.776 194.976 284.632 194.464 292.04Z" fill="#EEC1BB"/>
<path opacity="0.2" d="M194.464 292.04C191.181 293.23 187.8 294.133 184.36 294.736C184.453 291.168 184.79 287.61 185.368 284.088C185.368 284.088 173.064 279.36 164.52 275.128L174.92 264.728C182.992 269.96 192.568 276.28 194.12 277.856C195.056 278.776 194.976 284.632 194.464 292.04Z" fill="black"/>
<path d="M166.768 254.776C166.768 254.776 200.904 274.4 205.544 278.832C210.184 283.264 236.968 324.68 236.968 324.68L234.712 326.832C234.712 326.832 212.472 307.744 203.6 289.6L166.8 271.816L166.768 254.776Z" fill="#EEC1BB"/>
<path d="M140.8 218.544C140.855 218.582 140.914 218.614 140.976 218.64C141.814 219.115 142.739 219.417 143.696 219.528C146.48 219.776 148.272 219.152 149.296 217.76C150.72 215.696 150.688 212.4 149.904 208.52C149.644 206.967 149.139 205.466 148.408 204.072C148.408 204.072 148.408 204.016 148.408 204.008L148.312 203.848C147.867 203.067 147.233 202.411 146.468 201.939C145.704 201.466 144.833 201.193 143.936 201.144C143.155 201.079 142.369 201.101 141.592 201.208C133.992 202.192 134.4 215.008 140.8 218.544Z" fill="#EEC1BB"/>
<path opacity="0.2" d="M141.008 218.64C141.848 219.089 142.771 219.361 143.72 219.44C146.496 219.688 148.28 218.968 149.32 217.568C147.764 218.188 146.049 218.286 144.432 217.848C143.839 217.711 143.222 217.711 142.628 217.848C142.035 217.985 141.481 218.256 141.008 218.64Z" fill="black"/>
<path d="M140.496 224.896C139.832 227.04 142.576 228.176 142.576 228.176C147.376 226.576 148.456 224.232 148.456 224.232C144.776 221.832 146.392 216.28 146.392 216.28L145.592 216.6L139.992 217.192C139.992 217.192 141.264 220.256 141.408 220.944C142.112 224.552 140.496 224.896 140.496 224.896Z" fill="#EBB376"/>
<path d="M148.456 204C148.456 204 149.624 209.288 144.88 212.288C144.88 212.288 143.48 218.152 140.288 218.688C135.936 219.408 131.224 213.736 131.848 207.192C132.664 198.728 145 196.32 148.456 204Z" fill="#263238"/>
<path d="M147.2 210.4C147.08 209.6 146.216 208.256 144.944 208.632C143.672 209.008 143.344 212.424 146.752 212.704C147.272 212.8 147.48 212.16 147.2 210.4Z" fill="#EBB376"/>
<path d="M235.48 322.136L231.8 324.968C231.725 325.029 231.672 325.113 231.65 325.207C231.628 325.302 231.639 325.4 231.68 325.488L233.552 329.488C233.592 329.573 233.649 329.649 233.719 329.711C233.788 329.774 233.87 329.823 233.958 329.854C234.047 329.885 234.14 329.899 234.234 329.893C234.328 329.888 234.419 329.865 234.504 329.824C234.552 329.802 234.597 329.775 234.64 329.744C236.128 328.552 236.176 328.368 238.072 326.912C239.232 326.016 242.872 323.424 244.472 322.184C246.072 320.944 245.064 319.192 244.296 319.552C240.84 321.152 237.896 322.008 236.296 321.888C236.003 321.866 235.711 321.954 235.48 322.136Z" fill="#263238"/>
<path d="M236.28 322.064C236.26 322.074 236.237 322.077 236.214 322.074C236.192 322.07 236.171 322.06 236.154 322.044C236.138 322.029 236.127 322.009 236.122 321.986C236.117 321.964 236.119 321.941 236.128 321.92C236.2 321.728 236.856 320.008 237.448 319.904C237.514 319.89 237.582 319.895 237.644 319.919C237.707 319.944 237.761 319.985 237.8 320.04C237.882 320.121 237.941 320.222 237.974 320.332C238.006 320.443 238.009 320.56 237.984 320.672C237.889 320.999 237.682 321.282 237.4 321.472C237.051 321.712 236.675 321.91 236.28 322.064ZM236.448 321.736C237.013 321.544 237.482 321.144 237.76 320.616C237.776 320.54 237.772 320.462 237.75 320.388C237.728 320.314 237.687 320.246 237.632 320.192C237.568 320.128 237.512 320.112 237.488 320.136C237.438 320.146 237.391 320.168 237.352 320.2C236.956 320.65 236.649 321.171 236.448 321.736Z" fill="#009F61"/>
<path d="M236.272 322.104C236.252 322.105 236.232 322.101 236.214 322.092C236.196 322.084 236.18 322.072 236.168 322.056C236.168 322 235.368 320.824 235.536 320.12C235.555 320.034 235.591 319.953 235.642 319.882C235.693 319.811 235.757 319.75 235.832 319.704C235.9 319.649 235.985 319.62 236.072 319.62C236.159 319.62 236.244 319.649 236.312 319.704C236.704 320.048 236.584 321.48 236.352 322L236.312 322.04L236.272 322.104ZM235.736 320.136C235.734 320.689 235.898 321.23 236.208 321.688C236.399 321.09 236.371 320.443 236.128 319.864C236.128 319.864 236.04 319.776 235.928 319.864H235.88C235.801 319.934 235.75 320.031 235.736 320.136Z" fill="#009F61"/>
<path d="M191.296 325.6L186.648 325.688C186.553 325.693 186.462 325.73 186.389 325.792C186.317 325.854 186.267 325.939 186.248 326.032L185.376 330.36C185.35 330.541 185.395 330.725 185.5 330.873C185.606 331.022 185.765 331.125 185.944 331.16C185.997 331.168 186.051 331.168 186.104 331.16C188 331.088 188.152 330.968 190.544 330.92C192.016 330.92 196.456 330.96 198.488 330.92C200.52 330.88 200.744 328.864 199.912 328.696C196.16 327.96 193.336 326.888 192.12 325.84C191.886 325.658 191.591 325.572 191.296 325.6Z" fill="#263238"/>
<path d="M191.712 326.112C191.689 326.108 191.667 326.097 191.651 326.079C191.635 326.062 191.626 326.04 191.624 326.016C191.618 325.995 191.619 325.972 191.628 325.951C191.637 325.931 191.652 325.914 191.672 325.904C191.84 325.792 193.384 324.8 193.928 325.064C193.99 325.092 194.042 325.137 194.079 325.193C194.116 325.25 194.136 325.316 194.136 325.384C194.152 325.498 194.139 325.614 194.098 325.722C194.058 325.829 193.991 325.925 193.904 326C193.635 326.194 193.307 326.287 192.976 326.264C192.55 326.262 192.126 326.211 191.712 326.112ZM192.04 325.944C192.608 326.126 193.223 326.083 193.76 325.824C193.817 325.772 193.859 325.707 193.884 325.634C193.91 325.562 193.916 325.484 193.904 325.408C193.904 325.32 193.856 325.28 193.832 325.28C193.782 325.269 193.73 325.269 193.68 325.28C193.096 325.396 192.54 325.621 192.04 325.944Z" fill="#009F61"/>
<path d="M191.68 326.136C191.661 326.126 191.646 326.111 191.636 326.093C191.626 326.074 191.622 326.053 191.624 326.032C191.624 325.968 191.712 324.576 192.264 324.104C192.329 324.045 192.407 324 192.491 323.974C192.576 323.948 192.665 323.94 192.752 323.952C192.839 323.95 192.925 323.978 192.993 324.032C193.062 324.086 193.109 324.163 193.128 324.248C193.232 324.752 192.328 325.848 191.792 326.12H191.736C191.72 326.132 191.7 326.138 191.68 326.136ZM192.416 324.24C192.086 324.684 191.897 325.216 191.872 325.768C192.368 325.384 192.968 324.56 192.896 324.248C192.896 324.248 192.896 324.136 192.728 324.136H192.672C192.577 324.138 192.485 324.175 192.416 324.24Z" fill="#009F61"/>
<path d="M165.816 249.52L148.88 256.632C141.88 239.232 132.36 230.864 132.36 230.864C139.144 222.728 151.672 218.984 151.672 218.984C153.522 220.49 155.119 222.283 156.4 224.296C157.812 226.482 159.043 228.781 160.08 231.168C162.596 237.08 164.518 243.227 165.816 249.52Z" fill="#009F61"/>
<path d="M148.296 207.536C148.296 207.536 153.616 202.112 148.52 198.536C143.424 194.96 138.368 199.736 138.368 199.736C138.368 199.736 126.264 202.784 128.92 210.824C131.576 218.864 133.272 219.528 129.472 223.704C125.672 227.88 121.8 234.04 125.768 237.92C129.736 241.8 143.416 237.64 147.52 231.688C151.624 225.736 144.152 213.12 148.296 207.536Z" fill="#263238"/>
<path d="M164.584 244.304L146.184 250.616C146.184 250.616 150.256 270.656 153.208 274.008C156.16 277.36 175.896 292.88 178.688 291.656C181.48 290.432 200 274.008 200 274.008L168.664 252.52L164.584 244.304Z" fill="#263238"/>
<path d="M161.904 248.072L165.816 246.776L164.848 244.84L161.144 246.144L161.904 248.072Z" fill="black"/>
<path d="M150.208 249.992L146.2 251.4L146.736 253.112L150.656 251.808L150.208 249.992Z" fill="black"/>
<path d="M151.496 251.528L161.12 248.336L160.4 246.4L150.968 249.72L151.496 251.528Z" fill="black"/>
<path opacity="0.2" d="M160.08 231.2C156.032 230.728 153.752 224.64 153.752 224.64C154.628 224.483 155.512 224.379 156.4 224.328C157.812 226.514 159.043 228.813 160.08 231.2Z" fill="black"/>
<path d="M151.672 218.984C156.072 218.328 165.912 221.896 166.768 221.856C167.624 221.816 177.168 214.312 177.168 214.312L179.648 216.496C179.648 216.496 169.648 226.808 167.592 226.896C165.536 226.984 154.792 226.208 154.792 226.208C154.792 226.208 152.16 225.272 151.656 222.896C151.349 221.609 151.355 220.268 151.672 218.984Z" fill="#009F61"/>
</svg>
